<svg xmlns="http://www.w3.org/2000/svg" xmlns:xlink="http://www.w3.org/1999/xlink" contentStyleType="text/css" height="700px" preserveAspectRatio="none" style="width:1109px;height:700px;background:#FFFFFF;" version="1.1" viewBox="0 0 1109 700" width="1109px" zoomAndPan="magnify"><title>As a reader, upon returning a Book, I want to recommend it (positively or negatively).</title><defs/><g><text fill="#000000" font-family="sans-serif" font-size="14" font-weight="bold" lengthAdjust="spacing" textLength="566.3301" x="270.6741" y="30.1074">As a reader, upon returning a Book, I want to recommend it (positively or negatively).</text><rect fill="#FFFFFF" height="467.7832" style="stroke:#181818;stroke-width:1.0;" width="10" x="388.9795" y="167.4453"/><rect fill="#FFFFFF" height="75.582" style="stroke:#181818;stroke-width:1.0;" width="10" x="519.0894" y="550.6465"/><rect fill="#FFFFFF" height="75.582" style="stroke:#181818;stroke-width:1.0;" width="10" x="650.8682" y="261.3184"/><rect fill="#FFFFFF" height="75.582" style="stroke:#181818;stroke-width:1.0;" width="10" x="826.4844" y="368.1914"/><rect fill="#FFFFFF" height="467.7832" style="stroke:#181818;stroke-width:1.0;" width="10" x="1042.6577" y="167.4453"/><line style="stroke:#181818;stroke-width:0.5;stroke-dasharray:5.0,5.0;" x1="393.0659" x2="393.0659" y1="96.8633" y2="644.2285"/><line style="stroke:#181818;stroke-width:0.5;stroke-dasharray:5.0,5.0;" x1="523.7861" x2="523.7861" y1="96.8633" y2="644.2285"/><line style="stroke:#181818;stroke-width:0.5;stroke-dasharray:5.0,5.0;" x1="655.3926" x2="655.3926" y1="96.8633" y2="644.2285"/><line style="stroke:#181818;stroke-width:0.5;stroke-dasharray:5.0,5.0;" x1="830.6191" x2="830.6191" y1="96.8633" y2="644.2285"/><line style="stroke:#181818;stroke-width:0.5;stroke-dasharray:5.0,5.0;" x1="1047.6372" x2="1047.6372" y1="96.8633" y2="644.2285"/><rect fill="#E2E2F0" height="51.2422" rx="2.5" ry="2.5" style="stroke:#181818;stroke-width:0.5;" width="91.8271" x="348.0659" y="44.6211"/><text fill="#000000" font-family="sans-serif" font-size="14" lengthAdjust="spacing" textLength="77.8271" x="355.0659" y="66.7285">lendingsC[n]</text><text fill="#000000" font-family="sans-serif" font-size="14" lengthAdjust="spacing" textLength="70.8271" x="358.5659" y="85.3496">:LendingsC</text><rect fill="#E2E2F0" height="51.2422" rx="2.5" ry="2.5" style="stroke:#181818;stroke-width:0.5;" width="91.8271" x="348.0659" y="643.2285"/><text fill="#000000" font-family="sans-serif" font-size="14" lengthAdjust="spacing" textLength="77.8271" x="355.0659" y="665.3359">lendingsC[n]</text><text fill="#000000" font-family="sans-serif" font-size="14" lengthAdjust="spacing" textLength="70.8271" x="358.5659" y="683.957">:LendingsC</text><rect fill="#E2E2F0" height="51.2422" rx="2.5" ry="2.5" style="stroke:#181818;stroke-width:0.5;" width="92.6064" x="477.7861" y="44.6211"/><text fill="#000000" font-family="sans-serif" font-size="14" lengthAdjust="spacing" textLength="78.6064" x="484.7861" y="66.7285">lendingsQ[n]</text><text fill="#000000" font-family="sans-serif" font-size="14" lengthAdjust="spacing" textLength="71.6064" x="488.2861" y="85.3496">:LendingsQ</text><rect fill="#E2E2F0" height="51.2422" rx="2.5" ry="2.5" style="stroke:#181818;stroke-width:0.5;" width="92.6064" x="477.7861" y="643.2285"/><text fill="#000000" font-family="sans-serif" font-size="14" lengthAdjust="spacing" textLength="78.6064" x="484.7861" y="665.3359">lendingsQ[n]</text><text fill="#000000" font-family="sans-serif" font-size="14" lengthAdjust="spacing" textLength="71.6064" x="488.2861" y="683.957">:LendingsQ</text><rect fill="#E2E2F0" height="51.2422" rx="2.5" ry="2.5" style="stroke:#181818;stroke-width:0.5;" width="150.9512" x="580.3926" y="44.6211"/><text fill="#000000" font-family="sans-serif" font-size="14" lengthAdjust="spacing" textLength="136.9512" x="587.3926" y="66.7285">recommendationsC[n]</text><text fill="#000000" font-family="sans-serif" font-size="14" lengthAdjust="spacing" textLength="130.7236" x="590.5063" y="85.3496">:RecommendationsC</text><rect fill="#E2E2F0" height="51.2422" rx="2.5" ry="2.5" style="stroke:#181818;stroke-width:0.5;" width="150.9512" x="580.3926" y="643.2285"/><text fill="#000000" font-family="sans-serif" font-size="14" lengthAdjust="spacing" textLength="136.9512" x="587.3926" y="665.3359">recommendationsC[n]</text><text fill="#000000" font-family="sans-serif" font-size="14" lengthAdjust="spacing" textLength="130.7236" x="590.5063" y="683.957">:RecommendationsC</text><rect fill="#E2E2F0" height="51.2422" rx="2.5" ry="2.5" style="stroke:#181818;stroke-width:0.5;" width="151.7305" x="755.6191" y="44.6211"/><text fill="#000000" font-family="sans-serif" font-size="14" lengthAdjust="spacing" textLength="137.7305" x="762.6191" y="66.7285">recommendationsQ[n]</text><text fill="#000000" font-family="sans-serif" font-size="14" lengthAdjust="spacing" textLength="131.5029" x="765.7329" y="85.3496">:RecommendationsQ</text><rect fill="#E2E2F0" height="51.2422" rx="2.5" ry="2.5" style="stroke:#181818;stroke-width:0.5;" width="151.7305" x="755.6191" y="643.2285"/><text fill="#000000" font-family="sans-serif" font-size="14" lengthAdjust="spacing" textLength="137.7305" x="762.6191" y="665.3359">recommendationsQ[n]</text><text fill="#000000" font-family="sans-serif" font-size="14" lengthAdjust="spacing" textLength="131.5029" x="765.7329" y="683.957">:RecommendationsQ</text><rect fill="#E2E2F0" height="32.6211" rx="2.5" ry="2.5" style="stroke:#181818;stroke-width:0.5;" width="112.041" x="991.6372" y="63.2422"/><text fill="#000000" font-family="sans-serif" font-size="14" lengthAdjust="spacing" textLength="98.041" x="998.6372" y="85.3496">MessageBroker</text><rect fill="#E2E2F0" height="32.6211" rx="2.5" ry="2.5" style="stroke:#181818;stroke-width:0.5;" width="112.041" x="991.6372" y="643.2285"/><text fill="#000000" font-family="sans-serif" font-size="14" lengthAdjust="spacing" textLength="98.041" x="998.6372" y="665.3359">MessageBroker</text><rect fill="#FFFFFF" height="467.7832" style="stroke:#181818;stroke-width:1.0;" width="10" x="388.9795" y="167.4453"/><rect fill="#FFFFFF" height="75.582" style="stroke:#181818;stroke-width:1.0;" width="10" x="519.0894" y="550.6465"/><rect fill="#FFFFFF" height="75.582" style="stroke:#181818;stroke-width:1.0;" width="10" x="650.8682" y="261.3184"/><rect fill="#FFFFFF" height="75.582" style="stroke:#181818;stroke-width:1.0;" width="10" x="826.4844" y="368.1914"/><rect fill="#FFFFFF" height="467.7832" style="stroke:#181818;stroke-width:1.0;" width="10" x="1042.6577" y="167.4453"/><path d="M73,111.8633 L73,138.8633 L388,138.8633 L388,121.8633 L378,111.8633 L73,111.8633 " fill="#FEFFDD" style="stroke:#181818;stroke-width:0.5;"/><path d="M378,111.8633 L378,121.8633 L388,121.8633 L378,111.8633 " fill="#FEFFDD" style="stroke:#181818;stroke-width:0.5;"/><text fill="#000000" font-family="sans-serif" font-size="13" lengthAdjust="spacing" textLength="294.106" x="79" y="130.8916">Nota: Os eventos de subscribe n&#227;o est&#227;o descritos</text><polygon fill="#181818" points="376.9795,163.4453,386.9795,167.4453,376.9795,171.4453,380.9795,167.4453" style="stroke:#181818;stroke-width:1.0;"/><line style="stroke:#181818;stroke-width:1.0;" x1="0" x2="382.9795" y1="167.4453" y2="167.4453"/><text fill="#000000" font-family="sans-serif" font-size="13" lengthAdjust="spacing" textLength="369.9795" x="7" y="162.1826">PATCH /api/LenCdings/{year}/{seq} (with recommendation data)</text><polygon fill="#181818" points="1030.6577,194.7363,1040.6577,198.7363,1030.6577,202.7363,1034.6577,198.7363" style="stroke:#181818;stroke-width:1.0;"/><line style="stroke:#181818;stroke-width:1.0;" x1="398.9795" x2="1036.6577" y1="198.7363" y2="198.7363"/><text fill="#000000" font-family="sans-serif" font-size="13" lengthAdjust="spacing" textLength="147.4561" x="405.9795" y="193.4736">publish{lending_returned}</text><polygon fill="#181818" points="11,226.0273,1,230.0273,11,234.0273,7,230.0273" style="stroke:#181818;stroke-width:1.0;"/><line style="stroke:#181818;stroke-width:1.0;stroke-dasharray:2.0,2.0;" x1="5" x2="387.9795" y1="230.0273" y2="230.0273"/><text fill="#000000" font-family="sans-serif" font-size="13" lengthAdjust="spacing" textLength="78.0635" x="17" y="224.7646">202 accepted</text><polygon fill="#181818" points="671.8682,257.3184,661.8682,261.3184,671.8682,265.3184,667.8682,261.3184" style="stroke:#181818;stroke-width:1.0;"/><line style="stroke:#181818;stroke-width:1.0;" x1="665.8682" x2="1041.6577" y1="261.3184" y2="261.3184"/><text fill="#000000" font-family="sans-serif" font-size="13" lengthAdjust="spacing" textLength="137.3315" x="677.8682" y="256.0557">notify{lending_returned}</text><line style="stroke:#181818;stroke-width:1.0;" x1="660.8682" x2="702.8682" y1="292.6094" y2="292.6094"/><line style="stroke:#181818;stroke-width:1.0;" x1="702.8682" x2="702.8682" y1="292.6094" y2="305.6094"/><line style="stroke:#181818;stroke-width:1.0;" x1="661.8682" x2="702.8682" y1="305.6094" y2="305.6094"/><polygon fill="#181818" points="671.8682,301.6094,661.8682,305.6094,671.8682,309.6094,667.8682,305.6094" style="stroke:#181818;stroke-width:1.0;"/><text fill="#000000" font-family="sans-serif" font-size="13" lengthAdjust="spacing" textLength="141.6162" x="667.8682" y="287.3467">create(recommendation)</text><polygon fill="#181818" points="1030.6577,332.9004,1040.6577,336.9004,1030.6577,340.9004,1034.6577,336.9004" style="stroke:#181818;stroke-width:1.0;"/><line style="stroke:#181818;stroke-width:1.0;" x1="655.8682" x2="1036.6577" y1="336.9004" y2="336.9004"/><text fill="#000000" font-family="sans-serif" font-size="13" lengthAdjust="spacing" textLength="197.2979" x="662.8682" y="331.6377">publish{recommendation_created}</text><polygon fill="#181818" points="847.4844,364.1914,837.4844,368.1914,847.4844,372.1914,843.4844,368.1914" style="stroke:#181818;stroke-width:1.0;"/><line style="stroke:#181818;stroke-width:1.0;" x1="841.4844" x2="1041.6577" y1="368.1914" y2="368.1914"/><text fill="#000000" font-family="sans-serif" font-size="13" lengthAdjust="spacing" textLength="187.1733" x="853.4844" y="362.9287">notify{recommendation_created}</text><line style="stroke:#181818;stroke-width:1.0;" x1="836.4844" x2="878.4844" y1="399.4824" y2="399.4824"/><line style="stroke:#181818;stroke-width:1.0;" x1="878.4844" x2="878.4844" y1="399.4824" y2="412.4824"/><line style="stroke:#181818;stroke-width:1.0;" x1="837.4844" x2="878.4844" y1="412.4824" y2="412.4824"/><polygon fill="#181818" points="847.4844,408.4824,837.4844,412.4824,847.4844,416.4824,843.4844,412.4824" style="stroke:#181818;stroke-width:1.0;"/><text fill="#000000" font-family="sans-serif" font-size="13" lengthAdjust="spacing" textLength="132.9453" x="843.4844" y="394.2197">save(recommendation)</text><polygon fill="#181818" points="409.9795,439.7734,399.9795,443.7734,409.9795,447.7734,405.9795,443.7734" style="stroke:#181818;stroke-width:1.0;"/><line style="stroke:#181818;stroke-width:1.0;" x1="403.9795" x2="1041.6577" y1="443.7734" y2="443.7734"/><text fill="#000000" font-family="sans-serif" font-size="13" lengthAdjust="spacing" textLength="187.1733" x="415.9795" y="438.5107">notify{recommendation_created}</text><line style="stroke:#181818;stroke-width:1.0;" x1="398.9795" x2="440.9795" y1="475.0645" y2="475.0645"/><line style="stroke:#181818;stroke-width:1.0;" x1="440.9795" x2="440.9795" y1="475.0645" y2="488.0645"/><line style="stroke:#181818;stroke-width:1.0;" x1="399.9795" x2="440.9795" y1="488.0645" y2="488.0645"/><polygon fill="#181818" points="409.9795,484.0645,399.9795,488.0645,409.9795,492.0645,405.9795,488.0645" style="stroke:#181818;stroke-width:1.0;"/><text fill="#000000" font-family="sans-serif" font-size="13" lengthAdjust="spacing" textLength="96.1099" x="405.9795" y="469.8018">patch(returnLen)</text><polygon fill="#181818" points="1030.6577,515.3555,1040.6577,519.3555,1030.6577,523.3555,1034.6577,519.3555" style="stroke:#181818;stroke-width:1.0;"/><line style="stroke:#181818;stroke-width:1.0;" x1="398.9795" x2="1036.6577" y1="519.3555" y2="519.3555"/><text fill="#000000" font-family="sans-serif" font-size="13" lengthAdjust="spacing" textLength="105.5298" x="405.9795" y="514.0928">publish{returnLen}</text><polygon fill="#181818" points="540.0894,546.6465,530.0894,550.6465,540.0894,554.6465,536.0894,550.6465" style="stroke:#181818;stroke-width:1.0;"/><line style="stroke:#181818;stroke-width:1.0;" x1="534.0894" x2="1041.6577" y1="550.6465" y2="550.6465"/><text fill="#000000" font-family="sans-serif" font-size="13" lengthAdjust="spacing" textLength="95.4053" x="546.0894" y="545.3838">notify{returnLen}</text><line style="stroke:#181818;stroke-width:1.0;" x1="529.0894" x2="571.0894" y1="581.9375" y2="581.9375"/><line style="stroke:#181818;stroke-width:1.0;" x1="571.0894" x2="571.0894" y1="581.9375" y2="594.9375"/><line style="stroke:#181818;stroke-width:1.0;" x1="530.0894" x2="571.0894" y1="594.9375" y2="594.9375"/><polygon fill="#181818" points="540.0894,590.9375,530.0894,594.9375,540.0894,598.9375,536.0894,594.9375" style="stroke:#181818;stroke-width:1.0;"/><text fill="#000000" font-family="sans-serif" font-size="13" lengthAdjust="spacing" textLength="91.7808" x="536.0894" y="576.6748">save(returnLen}</text><polygon fill="#181818" points="11,622.2285,1,626.2285,11,630.2285,7,626.2285" style="stroke:#181818;stroke-width:1.0;"/><line style="stroke:#181818;stroke-width:1.0;stroke-dasharray:2.0,2.0;" x1="5" x2="387.9795" y1="626.2285" y2="626.2285"/><text fill="#000000" font-family="sans-serif" font-size="13" lengthAdjust="spacing" textLength="39.0317" x="17" y="620.9658">200 ok</text><!--SRC=[XLBDRjim3BxhAOXUbW1DNVHe30FQN5QWMQjXjsqeP9j9X3YI9j4fWY1FiqVPYuso4yLkq-rYWTJt9z8VbaGkv5dcQcMeMTTNfLrd0NyrQ4gSL5ejl5eBqbGZt0PGu55Lw2-XSTPmGOqtsYpuuixQrINSmmiB0Lc-OwarcWeqmSZPe4bliDw2zM1meRfgV2M4KvvqgLqaNjJCOC4m_Mv-_Z3vmx6y01M0g-bvk1p2vH4kX_0KYksjEPfyVTLjoToS_fCipvBbaJnqdc48Qe5ttgxGHyIi4C9OGgXnJc3dtTi0lbXIEJm6m0qQiW4gXD0KeVIwG31_Vbl0GF6eC3OP8kAGevQOV6fbSdYw_JRz39boEekDTYRPRelAxxCThtSFenTDInW-2VXGOw5AtetYQ6saL77Ys00scHKvkAQeTLZk3Xjuxlu5hFRYusHoY75pVGEgBD4HLaBCYiYDSyrZN3tVdY4dktR-yNCYbVpp4Ow6eSS9r4yrn3ntJ9QlS6YGCicKwJrgdoYZgJnHWzgypTLfTvFuZ_Ombao3xiXEKRaSTJFYplZi7jBr_cJSVrIwxQ-tTP8dzE4T2VjwN6Amt6kmgpwa5VmB]--></g></svg>