<svg xmlns="http://www.w3.org/2000/svg" xmlns:xlink="http://www.w3.org/1999/xlink" contentStyleType="text/css" height="1140px" preserveAspectRatio="none" style="width:1258px;height:1140px;background:#FFFFFF;" version="1.1" viewBox="0 0 1258 1140" width="1258px" zoomAndPan="magnify"><title>As a librarian, I want to create a Book, Author and Genre in the same process</title><defs/><g><text fill="#000000" font-family="sans-serif" font-size="14" font-weight="bold" lengthAdjust="spacing" textLength="514.2539" x="370.991" y="30.1074">As a librarian, I want to create a Book, Author and Genre in the same process</text><rect fill="#FFFFFF" height="908.2754" style="stroke:#181818;stroke-width:1.0;" width="10" x="320.0322" y="167.4453"/><rect fill="#FFFFFF" height="75.582" style="stroke:#181818;stroke-width:1.0;" width="10" x="625.6992" y="991.1387"/><rect fill="#FFFFFF" height="151.1641" style="stroke:#181818;stroke-width:1.0;" width="10" x="724.0073" y="305.6094"/><rect fill="#FFFFFF" height="75.582" style="stroke:#181818;stroke-width:1.0;" width="10" x="839.6572" y="488.0645"/><rect fill="#FFFFFF" height="106.873" style="stroke:#181818;stroke-width:1.0;" width="10" x="946.6362" y="594.9375"/><rect fill="#FFFFFF" height="75.582" style="stroke:#181818;stroke-width:1.0;" width="10" x="1058.6743" y="733.1016"/><rect fill="#FFFFFF" height="832.6934" style="stroke:#181818;stroke-width:1.0;" width="10" x="1178.7705" y="243.0273"/><line style="stroke:#181818;stroke-width:0.5;stroke-dasharray:5.0,5.0;" x1="324.5151" x2="324.5151" y1="96.8633" y2="1084.7207"/><line style="stroke:#181818;stroke-width:0.5;stroke-dasharray:5.0,5.0;" x1="629.7925" x2="629.7925" y1="96.8633" y2="1084.7207"/><line style="stroke:#181818;stroke-width:0.5;stroke-dasharray:5.0,5.0;" x1="728.8213" x2="728.8213" y1="96.8633" y2="1084.7207"/><line style="stroke:#181818;stroke-width:0.5;stroke-dasharray:5.0,5.0;" x1="844.0815" x2="844.0815" y1="96.8633" y2="1084.7207"/><line style="stroke:#181818;stroke-width:0.5;stroke-dasharray:5.0,5.0;" x1="951.395" x2="951.395" y1="96.8633" y2="1084.7207"/><line style="stroke:#181818;stroke-width:0.5;stroke-dasharray:5.0,5.0;" x1="1063.0435" x2="1063.0435" y1="96.8633" y2="1084.7207"/><line style="stroke:#181818;stroke-width:0.5;stroke-dasharray:5.0,5.0;" x1="1183.3052" x2="1183.3052" y1="96.8633" y2="1084.7207"/><rect fill="#E2E2F0" height="51.2422" rx="2.5" ry="2.5" style="stroke:#181818;stroke-width:0.5;" width="77.0342" x="286.5151" y="44.6211"/><text fill="#000000" font-family="sans-serif" font-size="14" lengthAdjust="spacing" textLength="63.0342" x="293.5151" y="66.7285">booksC[n]</text><text fill="#000000" font-family="sans-serif" font-size="14" lengthAdjust="spacing" textLength="52.9102" x="298.5771" y="85.3496">:BooksC</text><rect fill="#E2E2F0" height="51.2422" rx="2.5" ry="2.5" style="stroke:#181818;stroke-width:0.5;" width="77.0342" x="286.5151" y="1083.7207"/><text fill="#000000" font-family="sans-serif" font-size="14" lengthAdjust="spacing" textLength="63.0342" x="293.5151" y="1105.8281">booksC[n]</text><text fill="#000000" font-family="sans-serif" font-size="14" lengthAdjust="spacing" textLength="52.9102" x="298.5771" y="1124.4492">:BooksC</text><rect fill="#E2E2F0" height="51.2422" rx="2.5" ry="2.5" style="stroke:#181818;stroke-width:0.5;" width="77.8135" x="591.7925" y="44.6211"/><text fill="#000000" font-family="sans-serif" font-size="14" lengthAdjust="spacing" textLength="63.8135" x="598.7925" y="66.7285">booksQ[n]</text><text fill="#000000" font-family="sans-serif" font-size="14" lengthAdjust="spacing" textLength="53.6895" x="603.8545" y="85.3496">:BooksQ</text><rect fill="#E2E2F0" height="51.2422" rx="2.5" ry="2.5" style="stroke:#181818;stroke-width:0.5;" width="77.8135" x="591.7925" y="1083.7207"/><text fill="#000000" font-family="sans-serif" font-size="14" lengthAdjust="spacing" textLength="63.8135" x="598.7925" y="1105.8281">booksQ[n]</text><text fill="#000000" font-family="sans-serif" font-size="14" lengthAdjust="spacing" textLength="53.6895" x="603.8545" y="1124.4492">:BooksQ</text><rect fill="#E2E2F0" height="51.2422" rx="2.5" ry="2.5" style="stroke:#181818;stroke-width:0.5;" width="86.3721" x="685.8213" y="44.6211"/><text fill="#000000" font-family="sans-serif" font-size="14" lengthAdjust="spacing" textLength="72.3721" x="692.8213" y="66.7285">authorsC[n]</text><text fill="#000000" font-family="sans-serif" font-size="14" lengthAdjust="spacing" textLength="62.248" x="697.8833" y="85.3496">:AuthorsC</text><rect fill="#E2E2F0" height="51.2422" rx="2.5" ry="2.5" style="stroke:#181818;stroke-width:0.5;" width="86.3721" x="685.8213" y="1083.7207"/><text fill="#000000" font-family="sans-serif" font-size="14" lengthAdjust="spacing" textLength="72.3721" x="692.8213" y="1105.8281">authorsC[n]</text><text fill="#000000" font-family="sans-serif" font-size="14" lengthAdjust="spacing" textLength="62.248" x="697.8833" y="1124.4492">:AuthorsC</text><rect fill="#E2E2F0" height="51.2422" rx="2.5" ry="2.5" style="stroke:#181818;stroke-width:0.5;" width="87.1514" x="801.0815" y="44.6211"/><text fill="#000000" font-family="sans-serif" font-size="14" lengthAdjust="spacing" textLength="73.1514" x="808.0815" y="66.7285">authorsQ[n]</text><text fill="#000000" font-family="sans-serif" font-size="14" lengthAdjust="spacing" textLength="63.0273" x="813.1436" y="85.3496">:AuthorsQ</text><rect fill="#E2E2F0" height="51.2422" rx="2.5" ry="2.5" style="stroke:#181818;stroke-width:0.5;" width="87.1514" x="801.0815" y="1083.7207"/><text fill="#000000" font-family="sans-serif" font-size="14" lengthAdjust="spacing" textLength="73.1514" x="808.0815" y="1105.8281">authorsQ[n]</text><text fill="#000000" font-family="sans-serif" font-size="14" lengthAdjust="spacing" textLength="63.0273" x="813.1436" y="1124.4492">:AuthorsQ</text><rect fill="#E2E2F0" height="51.2422" rx="2.5" ry="2.5" style="stroke:#181818;stroke-width:0.5;" width="82.4824" x="910.395" y="44.6211"/><text fill="#000000" font-family="sans-serif" font-size="14" lengthAdjust="spacing" textLength="68.4824" x="917.395" y="66.7285">genresC[n]</text><text fill="#000000" font-family="sans-serif" font-size="14" lengthAdjust="spacing" textLength="59.9102" x="921.6812" y="85.3496">:GenresC</text><rect fill="#E2E2F0" height="51.2422" rx="2.5" ry="2.5" style="stroke:#181818;stroke-width:0.5;" width="82.4824" x="910.395" y="1083.7207"/><text fill="#000000" font-family="sans-serif" font-size="14" lengthAdjust="spacing" textLength="68.4824" x="917.395" y="1105.8281">genresC[n]</text><text fill="#000000" font-family="sans-serif" font-size="14" lengthAdjust="spacing" textLength="59.9102" x="921.6812" y="1124.4492">:GenresC</text><rect fill="#E2E2F0" height="51.2422" rx="2.5" ry="2.5" style="stroke:#181818;stroke-width:0.5;" width="83.2617" x="1022.0435" y="44.6211"/><text fill="#000000" font-family="sans-serif" font-size="14" lengthAdjust="spacing" textLength="69.2617" x="1029.0435" y="66.7285">genresQ[n]</text><text fill="#000000" font-family="sans-serif" font-size="14" lengthAdjust="spacing" textLength="60.6895" x="1033.3296" y="85.3496">:GenresQ</text><rect fill="#E2E2F0" height="51.2422" rx="2.5" ry="2.5" style="stroke:#181818;stroke-width:0.5;" width="83.2617" x="1022.0435" y="1083.7207"/><text fill="#000000" font-family="sans-serif" font-size="14" lengthAdjust="spacing" textLength="69.2617" x="1029.0435" y="1105.8281">genresQ[n]</text><text fill="#000000" font-family="sans-serif" font-size="14" lengthAdjust="spacing" textLength="60.6895" x="1033.3296" y="1124.4492">:GenresQ</text><rect fill="#E2E2F0" height="32.6211" rx="2.5" ry="2.5" style="stroke:#181818;stroke-width:0.5;" width="136.9307" x="1115.3052" y="63.2422"/><text fill="#000000" font-family="sans-serif" font-size="14" lengthAdjust="spacing" textLength="122.9307" x="1122.3052" y="85.3496">MB:MessageBroker</text><rect fill="#E2E2F0" height="32.6211" rx="2.5" ry="2.5" style="stroke:#181818;stroke-width:0.5;" width="136.9307" x="1115.3052" y="1083.7207"/><text fill="#000000" font-family="sans-serif" font-size="14" lengthAdjust="spacing" textLength="122.9307" x="1122.3052" y="1105.8281">MB:MessageBroker</text><rect fill="#FFFFFF" height="908.2754" style="stroke:#181818;stroke-width:1.0;" width="10" x="320.0322" y="167.4453"/><rect fill="#FFFFFF" height="75.582" style="stroke:#181818;stroke-width:1.0;" width="10" x="625.6992" y="991.1387"/><rect fill="#FFFFFF" height="151.1641" style="stroke:#181818;stroke-width:1.0;" width="10" x="724.0073" y="305.6094"/><rect fill="#FFFFFF" height="75.582" style="stroke:#181818;stroke-width:1.0;" width="10" x="839.6572" y="488.0645"/><rect fill="#FFFFFF" height="106.873" style="stroke:#181818;stroke-width:1.0;" width="10" x="946.6362" y="594.9375"/><rect fill="#FFFFFF" height="75.582" style="stroke:#181818;stroke-width:1.0;" width="10" x="1058.6743" y="733.1016"/><rect fill="#FFFFFF" height="832.6934" style="stroke:#181818;stroke-width:1.0;" width="10" x="1178.7705" y="243.0273"/><path d="M5,111.8633 L5,138.8633 L320,138.8633 L320,121.8633 L310,111.8633 L5,111.8633 " fill="#FEFFDD" style="stroke:#181818;stroke-width:0.5;"/><path d="M310,111.8633 L310,121.8633 L320,121.8633 L310,111.8633 " fill="#FEFFDD" style="stroke:#181818;stroke-width:0.5;"/><text fill="#000000" font-family="sans-serif" font-size="13" lengthAdjust="spacing" textLength="294.106" x="11" y="130.8916">Nota: Os eventos de subscribe n&#227;o est&#227;o descritos</text><polygon fill="#181818" points="308.0322,163.4453,318.0322,167.4453,308.0322,171.4453,312.0322,167.4453" style="stroke:#181818;stroke-width:1.0;"/><line style="stroke:#181818;stroke-width:1.0;" x1="0" x2="314.0322" y1="167.4453" y2="167.4453"/><text fill="#000000" font-family="sans-serif" font-size="13" lengthAdjust="spacing" textLength="297.0322" x="7" y="162.1826">POST /api/books/saga {with author and genre data}</text><line style="stroke:#181818;stroke-width:1.0;" x1="330.0322" x2="372.0322" y1="198.7363" y2="198.7363"/><line style="stroke:#181818;stroke-width:1.0;" x1="372.0322" x2="372.0322" y1="198.7363" y2="211.7363"/><line style="stroke:#181818;stroke-width:1.0;" x1="331.0322" x2="372.0322" y1="211.7363" y2="211.7363"/><polygon fill="#181818" points="341.0322,207.7363,331.0322,211.7363,341.0322,215.7363,337.0322,211.7363" style="stroke:#181818;stroke-width:1.0;"/><text fill="#000000" font-family="sans-serif" font-size="13" lengthAdjust="spacing" textLength="127.1563" x="337.0322" y="193.4736">save(bookTemporary)</text><polygon fill="#181818" points="1166.7705,239.0273,1176.7705,243.0273,1166.7705,247.0273,1170.7705,243.0273" style="stroke:#181818;stroke-width:1.0;"/><line style="stroke:#181818;stroke-width:1.0;" x1="330.0322" x2="1172.7705" y1="243.0273" y2="243.0273"/><text fill="#000000" font-family="sans-serif" font-size="13" lengthAdjust="spacing" textLength="140.918" x="337.0322" y="237.7646">publish{bookTemporary}</text><polygon fill="#181818" points="11,270.3184,1,274.3184,11,278.3184,7,274.3184" style="stroke:#181818;stroke-width:1.0;"/><line style="stroke:#181818;stroke-width:1.0;stroke-dasharray:2.0,2.0;" x1="5" x2="319.0322" y1="274.3184" y2="274.3184"/><text fill="#000000" font-family="sans-serif" font-size="13" lengthAdjust="spacing" textLength="78.0635" x="17" y="269.0557">202 accepted</text><polygon fill="#181818" points="745.0073,301.6094,735.0073,305.6094,745.0073,309.6094,741.0073,305.6094" style="stroke:#181818;stroke-width:1.0;"/><line style="stroke:#181818;stroke-width:1.0;" x1="739.0073" x2="1177.7705" y1="305.6094" y2="305.6094"/><text fill="#000000" font-family="sans-serif" font-size="13" lengthAdjust="spacing" textLength="130.7935" x="751.0073" y="300.3467">notify{bookTemporary}</text><line style="stroke:#181818;stroke-width:1.0;" x1="734.0073" x2="776.0073" y1="336.9004" y2="336.9004"/><line style="stroke:#181818;stroke-width:1.0;" x1="776.0073" x2="776.0073" y1="336.9004" y2="349.9004"/><line style="stroke:#181818;stroke-width:1.0;" x1="735.0073" x2="776.0073" y1="349.9004" y2="349.9004"/><polygon fill="#181818" points="745.0073,345.9004,735.0073,349.9004,745.0073,353.9004,741.0073,349.9004" style="stroke:#181818;stroke-width:1.0;"/><text fill="#000000" font-family="sans-serif" font-size="13" lengthAdjust="spacing" textLength="81.6499" x="741.0073" y="331.6377">create(author)</text><line style="stroke:#181818;stroke-width:1.0;" x1="734.0073" x2="776.0073" y1="381.1914" y2="381.1914"/><line style="stroke:#181818;stroke-width:1.0;" x1="776.0073" x2="776.0073" y1="381.1914" y2="394.1914"/><line style="stroke:#181818;stroke-width:1.0;" x1="735.0073" x2="776.0073" y1="394.1914" y2="394.1914"/><polygon fill="#181818" points="745.0073,390.1914,735.0073,394.1914,745.0073,398.1914,741.0073,394.1914" style="stroke:#181818;stroke-width:1.0;"/><text fill="#000000" font-family="sans-serif" font-size="13" lengthAdjust="spacing" textLength="72.979" x="741.0073" y="375.9287">save(author)</text><polygon fill="#181818" points="1166.7705,421.4824,1176.7705,425.4824,1166.7705,429.4824,1170.7705,425.4824" style="stroke:#181818;stroke-width:1.0;"/><line style="stroke:#181818;stroke-width:1.0;" x1="734.0073" x2="1172.7705" y1="425.4824" y2="425.4824"/><text fill="#000000" font-family="sans-serif" font-size="13" lengthAdjust="spacing" textLength="86.7407" x="741.0073" y="420.2197">publish{author}</text><polygon fill="#181818" points="740.0073,452.7734,730.0073,456.7734,740.0073,460.7734,736.0073,456.7734" style="stroke:#181818;stroke-width:1.0;"/><line style="stroke:#181818;stroke-width:1.0;" x1="734.0073" x2="1177.7705" y1="456.7734" y2="456.7734"/><text fill="#000000" font-family="sans-serif" font-size="13" lengthAdjust="spacing" textLength="76.6162" x="746.0073" y="451.5107">notify{author}</text><polygon fill="#181818" points="860.6572,484.0645,850.6572,488.0645,860.6572,492.0645,856.6572,488.0645" style="stroke:#181818;stroke-width:1.0;"/><line style="stroke:#181818;stroke-width:1.0;" x1="854.6572" x2="1177.7705" y1="488.0645" y2="488.0645"/><text fill="#000000" font-family="sans-serif" font-size="13" lengthAdjust="spacing" textLength="76.6162" x="866.6572" y="482.8018">notify{author}</text><line style="stroke:#181818;stroke-width:1.0;" x1="849.6572" x2="891.6572" y1="519.3555" y2="519.3555"/><line style="stroke:#181818;stroke-width:1.0;" x1="891.6572" x2="891.6572" y1="519.3555" y2="532.3555"/><line style="stroke:#181818;stroke-width:1.0;" x1="850.6572" x2="891.6572" y1="532.3555" y2="532.3555"/><polygon fill="#181818" points="860.6572,528.3555,850.6572,532.3555,860.6572,536.3555,856.6572,532.3555" style="stroke:#181818;stroke-width:1.0;"/><text fill="#000000" font-family="sans-serif" font-size="13" lengthAdjust="spacing" textLength="72.979" x="856.6572" y="514.0928">save(author)</text><polygon fill="#181818" points="341.0322,559.6465,331.0322,563.6465,341.0322,567.6465,337.0322,563.6465" style="stroke:#181818;stroke-width:1.0;"/><line style="stroke:#181818;stroke-width:1.0;" x1="335.0322" x2="1177.7705" y1="563.6465" y2="563.6465"/><text fill="#000000" font-family="sans-serif" font-size="13" lengthAdjust="spacing" textLength="76.6162" x="347.0322" y="558.3838">notify{author}</text><polygon fill="#181818" points="967.6362,590.9375,957.6362,594.9375,967.6362,598.9375,963.6362,594.9375" style="stroke:#181818;stroke-width:1.0;"/><line style="stroke:#181818;stroke-width:1.0;" x1="961.6362" x2="1177.7705" y1="594.9375" y2="594.9375"/><text fill="#000000" font-family="sans-serif" font-size="13" lengthAdjust="spacing" textLength="76.6162" x="973.6362" y="589.6748">notify{author}</text><line style="stroke:#181818;stroke-width:1.0;" x1="956.6362" x2="998.6362" y1="626.2285" y2="626.2285"/><line style="stroke:#181818;stroke-width:1.0;" x1="998.6362" x2="998.6362" y1="626.2285" y2="639.2285"/><line style="stroke:#181818;stroke-width:1.0;" x1="957.6362" x2="998.6362" y1="639.2285" y2="639.2285"/><polygon fill="#181818" points="967.6362,635.2285,957.6362,639.2285,967.6362,643.2285,963.6362,639.2285" style="stroke:#181818;stroke-width:1.0;"/><text fill="#000000" font-family="sans-serif" font-size="13" lengthAdjust="spacing" textLength="78.0381" x="963.6362" y="620.9658">create(genre)</text><polygon fill="#181818" points="1166.7705,666.5195,1176.7705,670.5195,1166.7705,674.5195,1170.7705,670.5195" style="stroke:#181818;stroke-width:1.0;"/><line style="stroke:#181818;stroke-width:1.0;" x1="956.6362" x2="1172.7705" y1="670.5195" y2="670.5195"/><text fill="#000000" font-family="sans-serif" font-size="13" lengthAdjust="spacing" textLength="83.1289" x="963.6362" y="665.2568">publish{genre}</text><polygon fill="#181818" points="962.6362,697.8105,952.6362,701.8105,962.6362,705.8105,958.6362,701.8105" style="stroke:#181818;stroke-width:1.0;"/><line style="stroke:#181818;stroke-width:1.0;" x1="956.6362" x2="1177.7705" y1="701.8105" y2="701.8105"/><text fill="#000000" font-family="sans-serif" font-size="13" lengthAdjust="spacing" textLength="73.0044" x="968.6362" y="696.5479">notify{genre}</text><polygon fill="#181818" points="1079.6743,729.1016,1069.6743,733.1016,1079.6743,737.1016,1075.6743,733.1016" style="stroke:#181818;stroke-width:1.0;"/><line style="stroke:#181818;stroke-width:1.0;" x1="1073.6743" x2="1177.7705" y1="733.1016" y2="733.1016"/><text fill="#000000" font-family="sans-serif" font-size="13" lengthAdjust="spacing" textLength="73.0044" x="1085.6743" y="727.8389">notify{genre}</text><line style="stroke:#181818;stroke-width:1.0;" x1="1068.6743" x2="1110.6743" y1="764.3926" y2="764.3926"/><line style="stroke:#181818;stroke-width:1.0;" x1="1110.6743" x2="1110.6743" y1="764.3926" y2="777.3926"/><line style="stroke:#181818;stroke-width:1.0;" x1="1069.6743" x2="1110.6743" y1="777.3926" y2="777.3926"/><polygon fill="#181818" points="1079.6743,773.3926,1069.6743,777.3926,1079.6743,781.3926,1075.6743,777.3926" style="stroke:#181818;stroke-width:1.0;"/><text fill="#000000" font-family="sans-serif" font-size="13" lengthAdjust="spacing" textLength="69.3672" x="1075.6743" y="759.1299">save(genre)</text><polygon fill="#181818" points="341.0322,804.6836,331.0322,808.6836,341.0322,812.6836,337.0322,808.6836" style="stroke:#181818;stroke-width:1.0;"/><line style="stroke:#181818;stroke-width:1.0;" x1="335.0322" x2="1177.7705" y1="808.6836" y2="808.6836"/><text fill="#000000" font-family="sans-serif" font-size="13" lengthAdjust="spacing" textLength="73.0044" x="347.0322" y="803.4209">notify{genre}</text><line style="stroke:#181818;stroke-width:1.0;" x1="330.0322" x2="372.0322" y1="839.9746" y2="839.9746"/><line style="stroke:#181818;stroke-width:1.0;" x1="372.0322" x2="372.0322" y1="839.9746" y2="852.9746"/><line style="stroke:#181818;stroke-width:1.0;" x1="331.0322" x2="372.0322" y1="852.9746" y2="852.9746"/><polygon fill="#181818" points="341.0322,848.9746,331.0322,852.9746,341.0322,856.9746,337.0322,852.9746" style="stroke:#181818;stroke-width:1.0;"/><text fill="#000000" font-family="sans-serif" font-size="13" lengthAdjust="spacing" textLength="271.667" x="337.0322" y="834.7119">convertBookTemporary2Book(bookTemporary)</text><line style="stroke:#181818;stroke-width:1.0;" x1="330.0322" x2="372.0322" y1="884.2656" y2="884.2656"/><line style="stroke:#181818;stroke-width:1.0;" x1="372.0322" x2="372.0322" y1="884.2656" y2="897.2656"/><line style="stroke:#181818;stroke-width:1.0;" x1="331.0322" x2="372.0322" y1="897.2656" y2="897.2656"/><polygon fill="#181818" points="341.0322,893.2656,331.0322,897.2656,341.0322,901.2656,337.0322,897.2656" style="stroke:#181818;stroke-width:1.0;"/><text fill="#000000" font-family="sans-serif" font-size="13" lengthAdjust="spacing" textLength="64.3081" x="337.0322" y="879.0029">save(book)</text><polygon fill="#181818" points="1166.7705,924.5566,1176.7705,928.5566,1166.7705,932.5566,1170.7705,928.5566" style="stroke:#181818;stroke-width:1.0;"/><line style="stroke:#181818;stroke-width:1.0;" x1="330.0322" x2="1172.7705" y1="928.5566" y2="928.5566"/><text fill="#000000" font-family="sans-serif" font-size="13" lengthAdjust="spacing" textLength="78.0698" x="337.0322" y="923.2939">publish{book}</text><polygon fill="#181818" points="341.0322,955.8477,331.0322,959.8477,341.0322,963.8477,337.0322,959.8477" style="stroke:#181818;stroke-width:1.0;"/><line style="stroke:#181818;stroke-width:1.0;" x1="335.0322" x2="1177.7705" y1="959.8477" y2="959.8477"/><text fill="#000000" font-family="sans-serif" font-size="13" lengthAdjust="spacing" textLength="67.9453" x="347.0322" y="954.585">notify{book}</text><polygon fill="#181818" points="646.6992,987.1387,636.6992,991.1387,646.6992,995.1387,642.6992,991.1387" style="stroke:#181818;stroke-width:1.0;"/><line style="stroke:#181818;stroke-width:1.0;" x1="640.6992" x2="1177.7705" y1="991.1387" y2="991.1387"/><text fill="#000000" font-family="sans-serif" font-size="13" lengthAdjust="spacing" textLength="67.9453" x="652.6992" y="985.876">notify{book}</text><line style="stroke:#181818;stroke-width:1.0;" x1="635.6992" x2="677.6992" y1="1022.4297" y2="1022.4297"/><line style="stroke:#181818;stroke-width:1.0;" x1="677.6992" x2="677.6992" y1="1022.4297" y2="1035.4297"/><line style="stroke:#181818;stroke-width:1.0;" x1="636.6992" x2="677.6992" y1="1035.4297" y2="1035.4297"/><polygon fill="#181818" points="646.6992,1031.4297,636.6992,1035.4297,646.6992,1039.4297,642.6992,1035.4297" style="stroke:#181818;stroke-width:1.0;"/><text fill="#000000" font-family="sans-serif" font-size="13" lengthAdjust="spacing" textLength="64.3081" x="642.6992" y="1017.167">save(book)</text><polygon fill="#181818" points="11,1062.7207,1,1066.7207,11,1070.7207,7,1066.7207" style="stroke:#181818;stroke-width:1.0;"/><line style="stroke:#181818;stroke-width:1.0;stroke-dasharray:2.0,2.0;" x1="5" x2="319.0322" y1="1066.7207" y2="1066.7207"/><text fill="#000000" font-family="sans-serif" font-size="13" lengthAdjust="spacing" textLength="68.6626" x="17" y="1061.458">200 created</text><!--SRC=[XLDBRjim5Dpp50_PD0RYAlPIA0BONGHTk2dHxDekAEd59YAJAaax20AVfaVfnKfIeanALheIgJSpdFVxi3EcqNcMDJKJvh2lFvPodsdyVK1HuhpYRAlOdX33JOsmqi2WveLYYZDn0r_WnRB0I2WLCeCskfRo-GPM1xEJ2fYeu1w5Gk02p0v1ipr2esI9MXD26gOCBtdZHAuAozIVVuXVFqM-zkShO1hQu-8Ic4PWUWRJ8PXvDq5xrTqy8LmcA3IXq9WoUcNh4WsFtBSNJ-ZEb_4qnjC8x_HJmcQTRspTs1RNIZwZyk1DGOYGjlGrFXcGJtsz0BvAmt9uq81754Pgg6m33eKk5IyGnDy_4b0RzwdG_RGGWhPZJewG-LsGok7Rm_T7o5Z3Cr_tp7fWyFR2pGxOkTC-8QYOOIV2IiEFRYA2dUuBiQncHxnsYe-uRwGTgjTPZDiKEJI7ekPwzvQW8dcR_gVvF4X23ilR9R2onCPWHSYcS49zatEN6tzw7SfLcFgrjUz_d2UaFmqqszc_RYincuJvR2-2uaHRm6dIUOX7bgCPJcbqJ1lbHVkyw690JGm7wRvv__NZ1hZbX0KOkpdRwPSa759YLsC_OhC44nVFXqzJhtRHoEbvCsCA7L4611fSqaNAyXNhF4xKQyg4gzQb7IcbEA8owtXWb-xspkAC5-pTlJfDM6rZII9q61tjJVTD696DQ5dThjvsZQqkhU0_]--></g></svg>