<svg xmlns="http://www.w3.org/2000/svg" xmlns:xlink="http://www.w3.org/1999/xlink" contentStyleType="text/css" height="694px" preserveAspectRatio="none" style="width:836px;height:694px;background:#FFFFFF;" version="1.1" viewBox="0 0 836 694" width="836px" zoomAndPan="magnify"><title>As a reader, upon returning a Book, I want to recommend it (positively or negatively).</title><defs/><g><text fill="#000000" font-family="sans-serif" font-size="14" font-weight="bold" lengthAdjust="spacing" textLength="566.3301" x="134.2888" y="30.1074">As a reader, upon returning a Book, I want to recommend it (positively or negatively).</text><rect fill="#FFFFFF" height="499.0742" style="stroke:#181818;stroke-width:1.0;" width="10" x="375.2495" y="148.8242"/><rect fill="#FFFFFF" height="289.3281" style="stroke:#181818;stroke-width:1.0;" width="10" x="538.5894" y="286.9883"/><rect fill="#FFFFFF" height="459.7832" style="stroke:#181818;stroke-width:1.0;" width="10" x="769.8872" y="188.1152"/><line style="stroke:#181818;stroke-width:0.5;stroke-dasharray:5.0,5.0;" x1="379.8359" x2="379.8359" y1="78.2422" y2="656.8984"/><line style="stroke:#181818;stroke-width:0.5;stroke-dasharray:5.0,5.0;" x1="543.2275" x2="543.2275" y1="78.2422" y2="656.8984"/><line style="stroke:#181818;stroke-width:0.5;stroke-dasharray:5.0,5.0;" x1="774.8667" x2="774.8667" y1="78.2422" y2="656.8984"/><rect fill="#E2E2F0" height="32.6211" rx="2.5" ry="2.5" style="stroke:#181818;stroke-width:0.5;" width="70.8271" x="344.8359" y="44.6211"/><text fill="#000000" font-family="sans-serif" font-size="14" lengthAdjust="spacing" textLength="56.8271" x="351.8359" y="66.7285">Lendings</text><rect fill="#E2E2F0" height="32.6211" rx="2.5" ry="2.5" style="stroke:#181818;stroke-width:0.5;" width="70.8271" x="344.8359" y="655.8984"/><text fill="#000000" font-family="sans-serif" font-size="14" lengthAdjust="spacing" textLength="56.8271" x="351.8359" y="678.0059">Lendings</text><rect fill="#E2E2F0" height="32.6211" rx="2.5" ry="2.5" style="stroke:#181818;stroke-width:0.5;" width="130.7236" x="478.2275" y="44.6211"/><text fill="#000000" font-family="sans-serif" font-size="14" lengthAdjust="spacing" textLength="116.7236" x="485.2275" y="66.7285">Recommendations</text><rect fill="#E2E2F0" height="32.6211" rx="2.5" ry="2.5" style="stroke:#181818;stroke-width:0.5;" width="130.7236" x="478.2275" y="655.8984"/><text fill="#000000" font-family="sans-serif" font-size="14" lengthAdjust="spacing" textLength="116.7236" x="485.2275" y="678.0059">Recommendations</text><rect fill="#E2E2F0" height="32.6211" rx="2.5" ry="2.5" style="stroke:#181818;stroke-width:0.5;" width="112.041" x="718.8667" y="44.6211"/><text fill="#000000" font-family="sans-serif" font-size="14" lengthAdjust="spacing" textLength="98.041" x="725.8667" y="66.7285">MessageBroker</text><rect fill="#E2E2F0" height="32.6211" rx="2.5" ry="2.5" style="stroke:#181818;stroke-width:0.5;" width="112.041" x="718.8667" y="655.8984"/><text fill="#000000" font-family="sans-serif" font-size="14" lengthAdjust="spacing" textLength="98.041" x="725.8667" y="678.0059">MessageBroker</text><rect fill="#FFFFFF" height="499.0742" style="stroke:#181818;stroke-width:1.0;" width="10" x="375.2495" y="148.8242"/><rect fill="#FFFFFF" height="289.3281" style="stroke:#181818;stroke-width:1.0;" width="10" x="538.5894" y="286.9883"/><rect fill="#FFFFFF" height="459.7832" style="stroke:#181818;stroke-width:1.0;" width="10" x="769.8872" y="188.1152"/><path d="M60,93.2422 L60,120.2422 L375,120.2422 L375,103.2422 L365,93.2422 L60,93.2422 " fill="#FEFFDD" style="stroke:#181818;stroke-width:0.5;"/><path d="M365,93.2422 L365,103.2422 L375,103.2422 L365,93.2422 " fill="#FEFFDD" style="stroke:#181818;stroke-width:0.5;"/><text fill="#000000" font-family="sans-serif" font-size="13" lengthAdjust="spacing" textLength="294.106" x="66" y="112.2705">Nota: Os eventos de subscribe n&#227;o est&#227;o descritos</text><polygon fill="#181818" points="363.2495,144.8242,373.2495,148.8242,363.2495,152.8242,367.2495,148.8242" style="stroke:#181818;stroke-width:1.0;"/><line style="stroke:#181818;stroke-width:1.0;" x1="0" x2="369.2495" y1="148.8242" y2="148.8242"/><text fill="#000000" font-family="sans-serif" font-size="13" lengthAdjust="spacing" textLength="356.2495" x="7" y="143.5615">PATCH /api/lendings/{year}/{seq} (with recommendation data)</text><line style="stroke:#181818;stroke-width:1.0;" x1="385.2495" x2="427.2495" y1="180.1152" y2="180.1152"/><line style="stroke:#181818;stroke-width:1.0;" x1="427.2495" x2="427.2495" y1="180.1152" y2="193.1152"/><line style="stroke:#181818;stroke-width:1.0;" x1="386.2495" x2="427.2495" y1="193.1152" y2="193.1152"/><polygon fill="#181818" points="396.2495,189.1152,386.2495,193.1152,396.2495,197.1152,392.2495,193.1152" style="stroke:#181818;stroke-width:1.0;"/><text fill="#000000" font-family="sans-serif" font-size="13" lengthAdjust="spacing" textLength="129.3398" x="392.2495" y="174.8525">patch(returnLenTemp)</text><polygon fill="#181818" points="757.8872,220.4063,767.8872,224.4063,757.8872,228.4063,761.8872,224.4063" style="stroke:#181818;stroke-width:1.0;"/><line style="stroke:#181818;stroke-width:1.0;" x1="385.2495" x2="763.8872" y1="224.4063" y2="224.4063"/><text fill="#000000" font-family="sans-serif" font-size="13" lengthAdjust="spacing" textLength="147.4561" x="392.2495" y="219.1436">publish{lending_returned}</text><polygon fill="#181818" points="11,251.6973,1,255.6973,11,259.6973,7,255.6973" style="stroke:#181818;stroke-width:1.0;"/><line style="stroke:#181818;stroke-width:1.0;stroke-dasharray:2.0,2.0;" x1="5" x2="374.2495" y1="255.6973" y2="255.6973"/><text fill="#000000" font-family="sans-serif" font-size="13" lengthAdjust="spacing" textLength="78.0635" x="17" y="250.4346">202 accepted</text><polygon fill="#181818" points="559.5894,282.9883,549.5894,286.9883,559.5894,290.9883,555.5894,286.9883" style="stroke:#181818;stroke-width:1.0;"/><line style="stroke:#181818;stroke-width:1.0;" x1="553.5894" x2="768.8872" y1="286.9883" y2="286.9883"/><text fill="#000000" font-family="sans-serif" font-size="13" lengthAdjust="spacing" textLength="137.3315" x="565.5894" y="281.7256">notify{lending_returned}</text><line style="stroke:#181818;stroke-width:1.0;" x1="548.5894" x2="590.5894" y1="318.2793" y2="318.2793"/><line style="stroke:#181818;stroke-width:1.0;" x1="590.5894" x2="590.5894" y1="318.2793" y2="331.2793"/><line style="stroke:#181818;stroke-width:1.0;" x1="549.5894" x2="590.5894" y1="331.2793" y2="331.2793"/><polygon fill="#181818" points="559.5894,327.2793,549.5894,331.2793,559.5894,335.2793,555.5894,331.2793" style="stroke:#181818;stroke-width:1.0;"/><text fill="#000000" font-family="sans-serif" font-size="13" lengthAdjust="spacing" textLength="174.8462" x="555.5894" y="313.0166">create(recommendationTemp)</text><polygon fill="#181818" points="757.8872,358.5703,767.8872,362.5703,757.8872,366.5703,761.8872,362.5703" style="stroke:#181818;stroke-width:1.0;"/><line style="stroke:#181818;stroke-width:1.0;" x1="548.5894" x2="763.8872" y1="362.5703" y2="362.5703"/><text fill="#000000" font-family="sans-serif" font-size="13" lengthAdjust="spacing" textLength="197.2979" x="555.5894" y="357.3076">publish{recommendation_created}</text><polygon fill="#181818" points="396.2495,389.8613,386.2495,393.8613,396.2495,397.8613,392.2495,393.8613" style="stroke:#181818;stroke-width:1.0;"/><line style="stroke:#181818;stroke-width:1.0;" x1="390.2495" x2="768.8872" y1="393.8613" y2="393.8613"/><text fill="#000000" font-family="sans-serif" font-size="13" lengthAdjust="spacing" textLength="193.6733" x="402.2495" y="388.5986">notify{reccommendation_created}</text><line style="stroke:#181818;stroke-width:1.0;" x1="385.2495" x2="427.2495" y1="425.1523" y2="425.1523"/><line style="stroke:#181818;stroke-width:1.0;" x1="427.2495" x2="427.2495" y1="425.1523" y2="438.1523"/><line style="stroke:#181818;stroke-width:1.0;" x1="386.2495" x2="427.2495" y1="438.1523" y2="438.1523"/><polygon fill="#181818" points="396.2495,434.1523,386.2495,438.1523,396.2495,442.1523,392.2495,438.1523" style="stroke:#181818;stroke-width:1.0;"/><text fill="#000000" font-family="sans-serif" font-size="13" lengthAdjust="spacing" textLength="96.1099" x="392.2495" y="419.8896">patch(returnLen)</text><polygon fill="#181818" points="757.8872,465.4434,767.8872,469.4434,757.8872,473.4434,761.8872,469.4434" style="stroke:#181818;stroke-width:1.0;"/><line style="stroke:#181818;stroke-width:1.0;" x1="385.2495" x2="763.8872" y1="469.4434" y2="469.4434"/><text fill="#000000" font-family="sans-serif" font-size="13" lengthAdjust="spacing" textLength="105.5298" x="392.2495" y="464.1807">publish{returnLen}</text><polygon fill="#181818" points="559.5894,496.7344,549.5894,500.7344,559.5894,504.7344,555.5894,500.7344" style="stroke:#181818;stroke-width:1.0;"/><line style="stroke:#181818;stroke-width:1.0;" x1="553.5894" x2="768.8872" y1="500.7344" y2="500.7344"/><text fill="#000000" font-family="sans-serif" font-size="13" lengthAdjust="spacing" textLength="95.4053" x="565.5894" y="495.4717">notify{returnLen}</text><line style="stroke:#181818;stroke-width:1.0;" x1="548.5894" x2="590.5894" y1="532.0254" y2="532.0254"/><line style="stroke:#181818;stroke-width:1.0;" x1="590.5894" x2="590.5894" y1="532.0254" y2="545.0254"/><line style="stroke:#181818;stroke-width:1.0;" x1="549.5894" x2="590.5894" y1="545.0254" y2="545.0254"/><polygon fill="#181818" points="559.5894,541.0254,549.5894,545.0254,559.5894,549.0254,555.5894,545.0254" style="stroke:#181818;stroke-width:1.0;"/><text fill="#000000" font-family="sans-serif" font-size="13" lengthAdjust="spacing" textLength="141.6162" x="555.5894" y="526.7627">create(recommendation)</text><polygon fill="#181818" points="757.8872,572.3164,767.8872,576.3164,757.8872,580.3164,761.8872,576.3164" style="stroke:#181818;stroke-width:1.0;"/><line style="stroke:#181818;stroke-width:1.0;" x1="543.5894" x2="763.8872" y1="576.3164" y2="576.3164"/><text fill="#000000" font-family="sans-serif" font-size="13" lengthAdjust="spacing" textLength="146.707" x="550.5894" y="571.0537">publish{recommendation}</text><polygon fill="#181818" points="396.2495,603.6074,386.2495,607.6074,396.2495,611.6074,392.2495,607.6074" style="stroke:#181818;stroke-width:1.0;"/><line style="stroke:#181818;stroke-width:1.0;" x1="390.2495" x2="768.8872" y1="607.6074" y2="607.6074"/><text fill="#000000" font-family="sans-serif" font-size="13" lengthAdjust="spacing" textLength="136.5825" x="402.2495" y="602.3447">notify{recommendation}</text><polygon fill="#181818" points="11,634.8984,1,638.8984,11,642.8984,7,638.8984" style="stroke:#181818;stroke-width:1.0;"/><line style="stroke:#181818;stroke-width:1.0;stroke-dasharray:2.0,2.0;" x1="5" x2="374.2495" y1="638.8984" y2="638.8984"/><text fill="#000000" font-family="sans-serif" font-size="13" lengthAdjust="spacing" textLength="39.0317" x="17" y="633.6357">200 ok</text><!--SRC=[ZL51Ri8m4Bpx5NihI40GHrHLAhsqKcchYZjod0Ki4jkrDo24yfe-fH_hcWHAfAZj8NBidHdFZ6ysH2vCayJbqb1Pv2DbYoJWHub6uJ3JSkrb8KXJZd0VG897cQ4VGEciuGsLtcYpvi7Cskq0dc3FGa2MPonLeCb04_IS3Phq3lC3M0y6rxBUzKT2EEb9A-qYyPa9hCStXVZVchsV5PbhpGd2Hot874EGQvnvkqKV0VDK64i8EQu8xEga2V1YIKxXDG3kq90Da264CWtAwnJ1V7rQm41noJ0UCaJ4955AYE5Tb9d2s_tYuH4IwNIIDxQJum6bhv8ZLrX1RwzfyrF4oJRm8lj2AiulsLWqn1-SHPqajUdLnVB10WjtXUOu3NYUChPCSnqsn-RsPSt2h1Atms4jDnbFG2g5ZZ0JOfv6AfSsZL7qwj11lTmLk-Nlmb3yz8IzTfpQNmExzjI6BMioozSMJjuQ2upiXlvIIx-hXikqwWXwDVmpr3y2LIB3LbFTmLgCwrSPWzqAyGq0]--></g></svg>