<svg xmlns="http://www.w3.org/2000/svg" xmlns:xlink="http://www.w3.org/1999/xlink" contentStyleType="text/css" height="600px" preserveAspectRatio="none" style="width:944px;height:600px;background:#FFFFFF;" version="1.1" viewBox="0 0 944 600" width="944px" zoomAndPan="magnify"><title>As a reader, I want to suggest the acquisition of a new Book.</title><defs/><g><text fill="#000000" font-family="sans-serif" font-size="14" font-weight="bold" lengthAdjust="spacing" textLength="403.7373" x="269.2507" y="30.1074">As a reader, I want to suggest the acquisition of a new Book.</text><rect fill="#FFFFFF" height="405.2012" style="stroke:#181818;stroke-width:1.0;" width="10" x="319.3779" y="148.8242"/><rect fill="#FFFFFF" height="106.873" style="stroke:#181818;stroke-width:1.0;" width="10" x="602.7012" y="438.1523"/><rect fill="#FFFFFF" height="365.9102" style="stroke:#181818;stroke-width:1.0;" width="10" x="801.4736" y="188.1152"/><line style="stroke:#181818;stroke-width:0.5;stroke-dasharray:5.0,5.0;" x1="324.3506" x2="324.3506" y1="78.2422" y2="563.0254"/><line style="stroke:#181818;stroke-width:0.5;stroke-dasharray:5.0,5.0;" x1="606.7461" x2="606.7461" y1="78.2422" y2="563.0254"/><line style="stroke:#181818;stroke-width:0.5;stroke-dasharray:5.0,5.0;" x1="805.5083" x2="805.5083" y1="78.2422" y2="563.0254"/><line style="stroke:#181818;stroke-width:0.5;stroke-dasharray:5.0,5.0;" x1="905.439" x2="905.439" y1="78.2422" y2="563.0254"/><rect fill="#E2E2F0" height="32.6211" rx="2.5" ry="2.5" style="stroke:#181818;stroke-width:0.5;" width="84.0547" x="282.3506" y="44.6211"/><text fill="#000000" font-family="sans-serif" font-size="14" lengthAdjust="spacing" textLength="70.0547" x="289.3506" y="66.7285">Suggestion</text><rect fill="#E2E2F0" height="32.6211" rx="2.5" ry="2.5" style="stroke:#181818;stroke-width:0.5;" width="84.0547" x="282.3506" y="562.0254"/><text fill="#000000" font-family="sans-serif" font-size="14" lengthAdjust="spacing" textLength="70.0547" x="289.3506" y="584.1328">Suggestion</text><rect fill="#E2E2F0" height="32.6211" rx="2.5" ry="2.5" style="stroke:#181818;stroke-width:0.5;" width="45.9102" x="584.7461" y="44.6211"/><text fill="#000000" font-family="sans-serif" font-size="14" lengthAdjust="spacing" textLength="31.9102" x="591.7461" y="66.7285">Book</text><rect fill="#E2E2F0" height="32.6211" rx="2.5" ry="2.5" style="stroke:#181818;stroke-width:0.5;" width="45.9102" x="584.7461" y="562.0254"/><text fill="#000000" font-family="sans-serif" font-size="14" lengthAdjust="spacing" textLength="31.9102" x="591.7461" y="584.1328">Book</text><rect fill="#E2E2F0" height="32.6211" rx="2.5" ry="2.5" style="stroke:#181818;stroke-width:0.5;" width="115.9307" x="748.5083" y="44.6211"/><text fill="#000000" font-family="sans-serif" font-size="14" lengthAdjust="spacing" textLength="101.9307" x="755.5083" y="66.7285">Message Broker</text><rect fill="#E2E2F0" height="32.6211" rx="2.5" ry="2.5" style="stroke:#181818;stroke-width:0.5;" width="115.9307" x="748.5083" y="562.0254"/><text fill="#000000" font-family="sans-serif" font-size="14" lengthAdjust="spacing" textLength="101.9307" x="755.5083" y="584.1328">Message Broker</text><rect fill="#E2E2F0" height="32.6211" rx="2.5" ry="2.5" style="stroke:#181818;stroke-width:0.5;" width="63.7998" x="874.439" y="44.6211"/><text fill="#000000" font-family="sans-serif" font-size="14" lengthAdjust="spacing" textLength="49.7998" x="881.439" y="66.7285">librarian</text><rect fill="#E2E2F0" height="32.6211" rx="2.5" ry="2.5" style="stroke:#181818;stroke-width:0.5;" width="63.7998" x="874.439" y="562.0254"/><text fill="#000000" font-family="sans-serif" font-size="14" lengthAdjust="spacing" textLength="49.7998" x="881.439" y="584.1328">librarian</text><rect fill="#FFFFFF" height="405.2012" style="stroke:#181818;stroke-width:1.0;" width="10" x="319.3779" y="148.8242"/><rect fill="#FFFFFF" height="106.873" style="stroke:#181818;stroke-width:1.0;" width="10" x="602.7012" y="438.1523"/><rect fill="#FFFFFF" height="365.9102" style="stroke:#181818;stroke-width:1.0;" width="10" x="801.4736" y="188.1152"/><path d="M5,93.2422 L5,120.2422 L320,120.2422 L320,103.2422 L310,93.2422 L5,93.2422 " fill="#FEFFDD" style="stroke:#181818;stroke-width:0.5;"/><path d="M310,93.2422 L310,103.2422 L320,103.2422 L310,93.2422 " fill="#FEFFDD" style="stroke:#181818;stroke-width:0.5;"/><text fill="#000000" font-family="sans-serif" font-size="13" lengthAdjust="spacing" textLength="294.106" x="11" y="112.2705">Nota: Os eventos de subscribe n&#227;o est&#227;o descritos</text><polygon fill="#181818" points="307.3779,144.8242,317.3779,148.8242,307.3779,152.8242,311.3779,148.8242" style="stroke:#181818;stroke-width:1.0;"/><line style="stroke:#181818;stroke-width:1.0;" x1="0" x2="313.3779" y1="148.8242" y2="148.8242"/><text fill="#000000" font-family="sans-serif" font-size="13" lengthAdjust="spacing" textLength="220.3779" x="7" y="143.5615">POST /suggest/isbn(with book details)</text><line style="stroke:#181818;stroke-width:1.0;" x1="329.3779" x2="371.3779" y1="180.1152" y2="180.1152"/><line style="stroke:#181818;stroke-width:1.0;" x1="371.3779" x2="371.3779" y1="180.1152" y2="193.1152"/><line style="stroke:#181818;stroke-width:1.0;" x1="330.3779" x2="371.3779" y1="193.1152" y2="193.1152"/><polygon fill="#181818" points="340.3779,189.1152,330.3779,193.1152,340.3779,197.1152,336.3779,193.1152" style="stroke:#181818;stroke-width:1.0;"/><text fill="#000000" font-family="sans-serif" font-size="13" lengthAdjust="spacing" textLength="177.0615" x="336.3779" y="174.8525">suggestBook(bookSuggestion)</text><line style="stroke:#181818;stroke-width:1.0;" x1="329.3779" x2="371.3779" y1="224.4063" y2="224.4063"/><line style="stroke:#181818;stroke-width:1.0;" x1="371.3779" x2="371.3779" y1="224.4063" y2="237.4063"/><line style="stroke:#181818;stroke-width:1.0;" x1="330.3779" x2="371.3779" y1="237.4063" y2="237.4063"/><polygon fill="#181818" points="340.3779,233.4063,330.3779,237.4063,340.3779,241.4063,336.3779,237.4063" style="stroke:#181818;stroke-width:1.0;"/><text fill="#000000" font-family="sans-serif" font-size="13" lengthAdjust="spacing" textLength="129.3589" x="336.3779" y="219.1436">save(bookSuggestion)</text><polygon fill="#181818" points="789.4736,264.6973,799.4736,268.6973,789.4736,272.6973,793.4736,268.6973" style="stroke:#181818;stroke-width:1.0;"/><line style="stroke:#181818;stroke-width:1.0;" x1="329.3779" x2="795.4736" y1="268.6973" y2="268.6973"/><text fill="#000000" font-family="sans-serif" font-size="13" lengthAdjust="spacing" textLength="143.1206" x="336.3779" y="263.4346">publish{bookSuggestion}</text><polygon fill="#181818" points="11,295.9883,1,299.9883,11,303.9883,7,299.9883" style="stroke:#181818;stroke-width:1.0;"/><line style="stroke:#181818;stroke-width:1.0;stroke-dasharray:2.0,2.0;" x1="5" x2="318.3779" y1="299.9883" y2="299.9883"/><text fill="#000000" font-family="sans-serif" font-size="13" lengthAdjust="spacing" textLength="79.5044" x="17" y="294.7256">202 Accepted</text><polygon fill="#181818" points="340.3779,327.2793,330.3779,331.2793,340.3779,335.2793,336.3779,331.2793" style="stroke:#181818;stroke-width:1.0;"/><line style="stroke:#181818;stroke-width:1.0;" x1="334.3779" x2="800.4736" y1="331.2793" y2="331.2793"/><text fill="#000000" font-family="sans-serif" font-size="13" lengthAdjust="spacing" textLength="132.9961" x="346.3779" y="326.0166">notify{bookSuggestion}</text><line style="stroke:#181818;stroke-width:1.0;" x1="329.3779" x2="371.3779" y1="362.5703" y2="362.5703"/><line style="stroke:#181818;stroke-width:1.0;" x1="371.3779" x2="371.3779" y1="362.5703" y2="375.5703"/><line style="stroke:#181818;stroke-width:1.0;" x1="330.3779" x2="371.3779" y1="375.5703" y2="375.5703"/><polygon fill="#181818" points="340.3779,371.5703,330.3779,375.5703,340.3779,379.5703,336.3779,375.5703" style="stroke:#181818;stroke-width:1.0;"/><text fill="#000000" font-family="sans-serif" font-size="13" lengthAdjust="spacing" textLength="249.3232" x="336.3779" y="357.3076">Librarian analyze suggestion and accepts it</text><polygon fill="#181818" points="789.4736,402.8613,799.4736,406.8613,789.4736,410.8613,793.4736,406.8613" style="stroke:#181818;stroke-width:1.0;"/><line style="stroke:#181818;stroke-width:1.0;" x1="329.3779" x2="795.4736" y1="406.8613" y2="406.8613"/><text fill="#000000" font-family="sans-serif" font-size="13" lengthAdjust="spacing" textLength="143.6729" x="336.3779" y="401.5986">publish{"book.accepted"}</text><polygon fill="#181818" points="623.7012,434.1523,613.7012,438.1523,623.7012,442.1523,619.7012,438.1523" style="stroke:#181818;stroke-width:1.0;"/><line style="stroke:#181818;stroke-width:1.0;" x1="617.7012" x2="800.4736" y1="438.1523" y2="438.1523"/><text fill="#000000" font-family="sans-serif" font-size="13" lengthAdjust="spacing" textLength="130.0889" x="629.7012" y="432.8896">Notify {book.accepted}</text><line style="stroke:#181818;stroke-width:1.0;" x1="612.7012" x2="654.7012" y1="469.4434" y2="469.4434"/><line style="stroke:#181818;stroke-width:1.0;" x1="654.7012" x2="654.7012" y1="469.4434" y2="482.4434"/><line style="stroke:#181818;stroke-width:1.0;" x1="613.7012" x2="654.7012" y1="482.4434" y2="482.4434"/><polygon fill="#181818" points="623.7012,478.4434,613.7012,482.4434,623.7012,486.4434,619.7012,482.4434" style="stroke:#181818;stroke-width:1.0;"/><text fill="#000000" font-family="sans-serif" font-size="13" lengthAdjust="spacing" textLength="164.7725" x="619.7012" y="464.1807">createSuggestedBook(book)</text><polygon fill="#181818" points="789.4736,509.7344,799.4736,513.7344,789.4736,517.7344,793.4736,513.7344" style="stroke:#181818;stroke-width:1.0;"/><line style="stroke:#181818;stroke-width:1.0;" x1="612.7012" x2="795.4736" y1="513.7344" y2="513.7344"/><text fill="#000000" font-family="sans-serif" font-size="13" lengthAdjust="spacing" textLength="78.0698" x="619.7012" y="508.4717">publish{book}</text><polygon fill="#181818" points="618.7012,541.0254,608.7012,545.0254,618.7012,549.0254,614.7012,545.0254" style="stroke:#181818;stroke-width:1.0;"/><line style="stroke:#181818;stroke-width:1.0;" x1="612.7012" x2="800.4736" y1="545.0254" y2="545.0254"/><text fill="#000000" font-family="sans-serif" font-size="13" lengthAdjust="spacing" textLength="67.9453" x="624.7012" y="539.7627">notify{book}</text><!--SRC=[VPB1Ri8m38RlUGgB4qW39exLD0bkaxOnYRs0qnY8A4cN6113FCqUPI-sf2tGWCQfhlFvznyxhBaW67j0S8IAt0Eym0uD0rlmcyM2V0YN19X_RRJNhAq1Em-ueHrCh5qDX2ZHiSvr6SiwixeeS1r0Vz88loaMIoj0XY0zUYFlSK4mSNP5heBMKXZB10NDERPlgGAyMyOCfXveIuQj1qK1a3vtMXAOtnyBWOqVHJ4P4456GLGKq7zkgMNmCPrzmh393BMNfhlJlAniXdf6NVYUm9pr5fdQHYxXjMOJnojteyvbH3rnaGftl2E1MxgfJV6rpA3So4BxvI4bZ-Aftq_aOFGuWd6UKycaX5ZBwtvXDdg-lz6vu_1LIuTEem4qMEo_sxC9AHLUK6pdGRC8ImFuttqdjXrWOwzphF3QOpp9uiQ3EpWaN8sTnrczgvYfDdSkpSCpPshkHEgyarx2Ni_ora9hGFMXehIr4ArCSHgE-0C0]--></g></svg>