<svg xmlns="http://www.w3.org/2000/svg" xmlns:xlink="http://www.w3.org/1999/xlink" contentStyleType="text/css" height="1127px" preserveAspectRatio="none" style="width:1059px;height:1127px;background:#FFFFFF;" version="1.1" viewBox="0 0 1059 1127" width="1059px" zoomAndPan="magnify"><title>As a librarian, I want to create a Book, Author and Genre in the same process</title><defs/><g><text fill="#000000" font-family="sans-serif" font-size="14" font-weight="bold" lengthAdjust="spacing" textLength="514.2539" x="271.6328" y="30.1074">As a librarian, I want to create a Book, Author and Genre in the same process</text><rect fill="#FFFFFF" height="895.2754" style="stroke:#181818;stroke-width:1.0;" width="10" x="320.0322" y="167.4453"/><rect fill="#FFFFFF" height="75.582" style="stroke:#181818;stroke-width:1.0;" width="10" x="427.0112" y="978.1387"/><rect fill="#FFFFFF" height="182.4551" style="stroke:#181818;stroke-width:1.0;" width="10" x="525.3193" y="261.3184"/><rect fill="#FFFFFF" height="75.582" style="stroke:#181818;stroke-width:1.0;" width="10" x="640.9692" y="475.0645"/><rect fill="#FFFFFF" height="106.873" style="stroke:#181818;stroke-width:1.0;" width="10" x="747.9482" y="581.9375"/><rect fill="#FFFFFF" height="75.582" style="stroke:#181818;stroke-width:1.0;" width="10" x="859.9863" y="720.1016"/><rect fill="#FFFFFF" height="863.9844" style="stroke:#181818;stroke-width:1.0;" width="10" x="980.0542" y="198.7363"/><line style="stroke:#181818;stroke-width:0.5;stroke-dasharray:5.0,5.0;" x1="324.5703" x2="324.5703" y1="96.8633" y2="1071.7207"/><line style="stroke:#181818;stroke-width:0.5;stroke-dasharray:5.0,5.0;" x1="431.5493" x2="431.5493" y1="96.8633" y2="1071.7207"/><line style="stroke:#181818;stroke-width:0.5;stroke-dasharray:5.0,5.0;" x1="530.1885" x2="530.1885" y1="96.8633" y2="1071.7207"/><line style="stroke:#181818;stroke-width:0.5;stroke-dasharray:5.0,5.0;" x1="645.8384" x2="645.8384" y1="96.8633" y2="1071.7207"/><line style="stroke:#181818;stroke-width:0.5;stroke-dasharray:5.0,5.0;" x1="752.7622" x2="752.7622" y1="96.8633" y2="1071.7207"/><line style="stroke:#181818;stroke-width:0.5;stroke-dasharray:5.0,5.0;" x1="864.8003" x2="864.8003" y1="96.8633" y2="1071.7207"/><line style="stroke:#181818;stroke-width:0.5;stroke-dasharray:5.0,5.0;" x1="984.5889" x2="984.5889" y1="96.8633" y2="1071.7207"/><rect fill="#E2E2F0" height="51.2422" rx="2.5" ry="2.5" style="stroke:#181818;stroke-width:0.5;" width="66.9238" x="291.5703" y="44.6211"/><text fill="#000000" font-family="sans-serif" font-size="14" lengthAdjust="spacing" textLength="52.9238" x="298.5703" y="66.7285">books[1]</text><text fill="#000000" font-family="sans-serif" font-size="14" lengthAdjust="spacing" textLength="42.7998" x="303.6323" y="85.3496">:Books</text><rect fill="#E2E2F0" height="51.2422" rx="2.5" ry="2.5" style="stroke:#181818;stroke-width:0.5;" width="66.9238" x="291.5703" y="1070.7207"/><text fill="#000000" font-family="sans-serif" font-size="14" lengthAdjust="spacing" textLength="52.9238" x="298.5703" y="1092.8281">books[1]</text><text fill="#000000" font-family="sans-serif" font-size="14" lengthAdjust="spacing" textLength="42.7998" x="303.6323" y="1111.4492">:Books</text><rect fill="#E2E2F0" height="51.2422" rx="2.5" ry="2.5" style="stroke:#181818;stroke-width:0.5;" width="66.9238" x="398.5493" y="44.6211"/><text fill="#000000" font-family="sans-serif" font-size="14" lengthAdjust="spacing" textLength="52.9238" x="405.5493" y="66.7285">books[n]</text><text fill="#000000" font-family="sans-serif" font-size="14" lengthAdjust="spacing" textLength="42.7998" x="410.6113" y="85.3496">:Books</text><rect fill="#E2E2F0" height="51.2422" rx="2.5" ry="2.5" style="stroke:#181818;stroke-width:0.5;" width="66.9238" x="398.5493" y="1070.7207"/><text fill="#000000" font-family="sans-serif" font-size="14" lengthAdjust="spacing" textLength="52.9238" x="405.5493" y="1092.8281">books[n]</text><text fill="#000000" font-family="sans-serif" font-size="14" lengthAdjust="spacing" textLength="42.7998" x="410.6113" y="1111.4492">:Books</text><rect fill="#E2E2F0" height="51.2422" rx="2.5" ry="2.5" style="stroke:#181818;stroke-width:0.5;" width="76.2617" x="492.1885" y="44.6211"/><text fill="#000000" font-family="sans-serif" font-size="14" lengthAdjust="spacing" textLength="62.2617" x="499.1885" y="66.7285">authors[1]</text><text fill="#000000" font-family="sans-serif" font-size="14" lengthAdjust="spacing" textLength="52.1377" x="504.2505" y="85.3496">:Authors</text><rect fill="#E2E2F0" height="51.2422" rx="2.5" ry="2.5" style="stroke:#181818;stroke-width:0.5;" width="76.2617" x="492.1885" y="1070.7207"/><text fill="#000000" font-family="sans-serif" font-size="14" lengthAdjust="spacing" textLength="62.2617" x="499.1885" y="1092.8281">authors[1]</text><text fill="#000000" font-family="sans-serif" font-size="14" lengthAdjust="spacing" textLength="52.1377" x="504.2505" y="1111.4492">:Authors</text><rect fill="#E2E2F0" height="51.2422" rx="2.5" ry="2.5" style="stroke:#181818;stroke-width:0.5;" width="76.2617" x="607.8384" y="44.6211"/><text fill="#000000" font-family="sans-serif" font-size="14" lengthAdjust="spacing" textLength="62.2617" x="614.8384" y="66.7285">authors[n]</text><text fill="#000000" font-family="sans-serif" font-size="14" lengthAdjust="spacing" textLength="52.1377" x="619.9004" y="85.3496">:Authors</text><rect fill="#E2E2F0" height="51.2422" rx="2.5" ry="2.5" style="stroke:#181818;stroke-width:0.5;" width="76.2617" x="607.8384" y="1070.7207"/><text fill="#000000" font-family="sans-serif" font-size="14" lengthAdjust="spacing" textLength="62.2617" x="614.8384" y="1092.8281">authors[n]</text><text fill="#000000" font-family="sans-serif" font-size="14" lengthAdjust="spacing" textLength="52.1377" x="619.9004" y="1111.4492">:Authors</text><rect fill="#E2E2F0" height="51.2422" rx="2.5" ry="2.5" style="stroke:#181818;stroke-width:0.5;" width="72.3721" x="716.7622" y="44.6211"/><text fill="#000000" font-family="sans-serif" font-size="14" lengthAdjust="spacing" textLength="58.3721" x="723.7622" y="66.7285">genres[1]</text><text fill="#000000" font-family="sans-serif" font-size="14" lengthAdjust="spacing" textLength="49.7998" x="728.0483" y="85.3496">:Genres</text><rect fill="#E2E2F0" height="51.2422" rx="2.5" ry="2.5" style="stroke:#181818;stroke-width:0.5;" width="72.3721" x="716.7622" y="1070.7207"/><text fill="#000000" font-family="sans-serif" font-size="14" lengthAdjust="spacing" textLength="58.3721" x="723.7622" y="1092.8281">genres[1]</text><text fill="#000000" font-family="sans-serif" font-size="14" lengthAdjust="spacing" textLength="49.7998" x="728.0483" y="1111.4492">:Genres</text><rect fill="#E2E2F0" height="51.2422" rx="2.5" ry="2.5" style="stroke:#181818;stroke-width:0.5;" width="72.3721" x="828.8003" y="44.6211"/><text fill="#000000" font-family="sans-serif" font-size="14" lengthAdjust="spacing" textLength="58.3721" x="835.8003" y="66.7285">genres[n]</text><text fill="#000000" font-family="sans-serif" font-size="14" lengthAdjust="spacing" textLength="49.7998" x="840.0864" y="85.3496">:Genres</text><rect fill="#E2E2F0" height="51.2422" rx="2.5" ry="2.5" style="stroke:#181818;stroke-width:0.5;" width="72.3721" x="828.8003" y="1070.7207"/><text fill="#000000" font-family="sans-serif" font-size="14" lengthAdjust="spacing" textLength="58.3721" x="835.8003" y="1092.8281">genres[n]</text><text fill="#000000" font-family="sans-serif" font-size="14" lengthAdjust="spacing" textLength="49.7998" x="840.0864" y="1111.4492">:Genres</text><rect fill="#E2E2F0" height="32.6211" rx="2.5" ry="2.5" style="stroke:#181818;stroke-width:0.5;" width="136.9307" x="916.5889" y="63.2422"/><text fill="#000000" font-family="sans-serif" font-size="14" lengthAdjust="spacing" textLength="122.9307" x="923.5889" y="85.3496">MB:MessageBroker</text><rect fill="#E2E2F0" height="32.6211" rx="2.5" ry="2.5" style="stroke:#181818;stroke-width:0.5;" width="136.9307" x="916.5889" y="1070.7207"/><text fill="#000000" font-family="sans-serif" font-size="14" lengthAdjust="spacing" textLength="122.9307" x="923.5889" y="1092.8281">MB:MessageBroker</text><rect fill="#FFFFFF" height="895.2754" style="stroke:#181818;stroke-width:1.0;" width="10" x="320.0322" y="167.4453"/><rect fill="#FFFFFF" height="75.582" style="stroke:#181818;stroke-width:1.0;" width="10" x="427.0112" y="978.1387"/><rect fill="#FFFFFF" height="182.4551" style="stroke:#181818;stroke-width:1.0;" width="10" x="525.3193" y="261.3184"/><rect fill="#FFFFFF" height="75.582" style="stroke:#181818;stroke-width:1.0;" width="10" x="640.9692" y="475.0645"/><rect fill="#FFFFFF" height="106.873" style="stroke:#181818;stroke-width:1.0;" width="10" x="747.9482" y="581.9375"/><rect fill="#FFFFFF" height="75.582" style="stroke:#181818;stroke-width:1.0;" width="10" x="859.9863" y="720.1016"/><rect fill="#FFFFFF" height="863.9844" style="stroke:#181818;stroke-width:1.0;" width="10" x="980.0542" y="198.7363"/><path d="M5,111.8633 L5,138.8633 L320,138.8633 L320,121.8633 L310,111.8633 L5,111.8633 " fill="#FEFFDD" style="stroke:#181818;stroke-width:0.5;"/><path d="M310,111.8633 L310,121.8633 L320,121.8633 L310,111.8633 " fill="#FEFFDD" style="stroke:#181818;stroke-width:0.5;"/><text fill="#000000" font-family="sans-serif" font-size="13" lengthAdjust="spacing" textLength="294.106" x="11" y="130.8916">Nota: Os eventos de subscribe n&#227;o est&#227;o descritos</text><polygon fill="#181818" points="308.0322,163.4453,318.0322,167.4453,308.0322,171.4453,312.0322,167.4453" style="stroke:#181818;stroke-width:1.0;"/><line style="stroke:#181818;stroke-width:1.0;" x1="0" x2="314.0322" y1="167.4453" y2="167.4453"/><text fill="#000000" font-family="sans-serif" font-size="13" lengthAdjust="spacing" textLength="297.0322" x="7" y="162.1826">POST /api/books/saga {with author and genre data}</text><polygon fill="#181818" points="968.0542,194.7363,978.0542,198.7363,968.0542,202.7363,972.0542,198.7363" style="stroke:#181818;stroke-width:1.0;"/><line style="stroke:#181818;stroke-width:1.0;" x1="330.0322" x2="974.0542" y1="198.7363" y2="198.7363"/><text fill="#000000" font-family="sans-serif" font-size="13" lengthAdjust="spacing" textLength="213.2305" x="337.0322" y="193.4736">publish{book_author_genre_request}</text><polygon fill="#181818" points="11,226.0273,1,230.0273,11,234.0273,7,230.0273" style="stroke:#181818;stroke-width:1.0;"/><line style="stroke:#181818;stroke-width:1.0;stroke-dasharray:2.0,2.0;" x1="5" x2="319.0322" y1="230.0273" y2="230.0273"/><text fill="#000000" font-family="sans-serif" font-size="13" lengthAdjust="spacing" textLength="78.0635" x="17" y="224.7646">202 accepted</text><polygon fill="#181818" points="546.3193,257.3184,536.3193,261.3184,546.3193,265.3184,542.3193,261.3184" style="stroke:#181818;stroke-width:1.0;"/><line style="stroke:#181818;stroke-width:1.0;" x1="540.3193" x2="979.0542" y1="261.3184" y2="261.3184"/><text fill="#000000" font-family="sans-serif" font-size="13" lengthAdjust="spacing" textLength="203.106" x="552.3193" y="256.0557">notify{book_author_genre_request}</text><line style="stroke:#181818;stroke-width:1.0;" x1="535.3193" x2="577.3193" y1="292.6094" y2="292.6094"/><line style="stroke:#181818;stroke-width:1.0;" x1="577.3193" x2="577.3193" y1="292.6094" y2="305.6094"/><line style="stroke:#181818;stroke-width:1.0;" x1="536.3193" x2="577.3193" y1="305.6094" y2="305.6094"/><polygon fill="#181818" points="546.3193,301.6094,536.3193,305.6094,546.3193,309.6094,542.3193,305.6094" style="stroke:#181818;stroke-width:1.0;"/><text fill="#000000" font-family="sans-serif" font-size="13" lengthAdjust="spacing" textLength="81.6499" x="542.3193" y="287.3467">create(author)</text><line style="stroke:#181818;stroke-width:1.0;" x1="535.3193" x2="577.3193" y1="336.9004" y2="336.9004"/><line style="stroke:#181818;stroke-width:1.0;" x1="577.3193" x2="577.3193" y1="336.9004" y2="349.9004"/><line style="stroke:#181818;stroke-width:1.0;" x1="536.3193" x2="577.3193" y1="349.9004" y2="349.9004"/><polygon fill="#181818" points="546.3193,345.9004,536.3193,349.9004,546.3193,353.9004,542.3193,349.9004" style="stroke:#181818;stroke-width:1.0;"/><text fill="#000000" font-family="sans-serif" font-size="13" lengthAdjust="spacing" textLength="72.979" x="542.3193" y="331.6377">save(author)</text><polygon fill="#181818" points="968.0542,377.1914,978.0542,381.1914,968.0542,385.1914,972.0542,381.1914" style="stroke:#181818;stroke-width:1.0;"/><line style="stroke:#181818;stroke-width:1.0;" x1="535.3193" x2="974.0542" y1="381.1914" y2="381.1914"/><text fill="#000000" font-family="sans-serif" font-size="13" lengthAdjust="spacing" textLength="213.2305" x="542.3193" y="375.9287">publish{book_author_genre_request}</text><polygon fill="#181818" points="968.0542,408.4824,978.0542,412.4824,968.0542,416.4824,972.0542,412.4824" style="stroke:#181818;stroke-width:1.0;"/><line style="stroke:#181818;stroke-width:1.0;" x1="535.3193" x2="974.0542" y1="412.4824" y2="412.4824"/><text fill="#000000" font-family="sans-serif" font-size="13" lengthAdjust="spacing" textLength="86.7407" x="542.3193" y="407.2197">publish{author}</text><polygon fill="#181818" points="541.3193,439.7734,531.3193,443.7734,541.3193,447.7734,537.3193,443.7734" style="stroke:#181818;stroke-width:1.0;"/><line style="stroke:#181818;stroke-width:1.0;" x1="535.3193" x2="979.0542" y1="443.7734" y2="443.7734"/><text fill="#000000" font-family="sans-serif" font-size="13" lengthAdjust="spacing" textLength="76.6162" x="547.3193" y="438.5107">notify{author}</text><polygon fill="#181818" points="661.9692,471.0645,651.9692,475.0645,661.9692,479.0645,657.9692,475.0645" style="stroke:#181818;stroke-width:1.0;"/><line style="stroke:#181818;stroke-width:1.0;" x1="655.9692" x2="979.0542" y1="475.0645" y2="475.0645"/><text fill="#000000" font-family="sans-serif" font-size="13" lengthAdjust="spacing" textLength="76.6162" x="667.9692" y="469.8018">notify{author}</text><line style="stroke:#181818;stroke-width:1.0;" x1="650.9692" x2="692.9692" y1="506.3555" y2="506.3555"/><line style="stroke:#181818;stroke-width:1.0;" x1="692.9692" x2="692.9692" y1="506.3555" y2="519.3555"/><line style="stroke:#181818;stroke-width:1.0;" x1="651.9692" x2="692.9692" y1="519.3555" y2="519.3555"/><polygon fill="#181818" points="661.9692,515.3555,651.9692,519.3555,661.9692,523.3555,657.9692,519.3555" style="stroke:#181818;stroke-width:1.0;"/><text fill="#000000" font-family="sans-serif" font-size="13" lengthAdjust="spacing" textLength="72.979" x="657.9692" y="501.0928">save(author)</text><polygon fill="#181818" points="341.0322,546.6465,331.0322,550.6465,341.0322,554.6465,337.0322,550.6465" style="stroke:#181818;stroke-width:1.0;"/><line style="stroke:#181818;stroke-width:1.0;" x1="335.0322" x2="979.0542" y1="550.6465" y2="550.6465"/><text fill="#000000" font-family="sans-serif" font-size="13" lengthAdjust="spacing" textLength="76.6162" x="347.0322" y="545.3838">notify{author}</text><polygon fill="#181818" points="768.9482,577.9375,758.9482,581.9375,768.9482,585.9375,764.9482,581.9375" style="stroke:#181818;stroke-width:1.0;"/><line style="stroke:#181818;stroke-width:1.0;" x1="762.9482" x2="979.0542" y1="581.9375" y2="581.9375"/><text fill="#000000" font-family="sans-serif" font-size="13" lengthAdjust="spacing" textLength="203.106" x="774.9482" y="576.6748">notify{book_author_genre_request}</text><line style="stroke:#181818;stroke-width:1.0;" x1="757.9482" x2="799.9482" y1="613.2285" y2="613.2285"/><line style="stroke:#181818;stroke-width:1.0;" x1="799.9482" x2="799.9482" y1="613.2285" y2="626.2285"/><line style="stroke:#181818;stroke-width:1.0;" x1="758.9482" x2="799.9482" y1="626.2285" y2="626.2285"/><polygon fill="#181818" points="768.9482,622.2285,758.9482,626.2285,768.9482,630.2285,764.9482,626.2285" style="stroke:#181818;stroke-width:1.0;"/><text fill="#000000" font-family="sans-serif" font-size="13" lengthAdjust="spacing" textLength="78.0381" x="764.9482" y="607.9658">create(genre)</text><polygon fill="#181818" points="968.0542,653.5195,978.0542,657.5195,968.0542,661.5195,972.0542,657.5195" style="stroke:#181818;stroke-width:1.0;"/><line style="stroke:#181818;stroke-width:1.0;" x1="757.9482" x2="974.0542" y1="657.5195" y2="657.5195"/><text fill="#000000" font-family="sans-serif" font-size="13" lengthAdjust="spacing" textLength="83.1289" x="764.9482" y="652.2568">publish{genre}</text><polygon fill="#181818" points="763.9482,684.8105,753.9482,688.8105,763.9482,692.8105,759.9482,688.8105" style="stroke:#181818;stroke-width:1.0;"/><line style="stroke:#181818;stroke-width:1.0;" x1="757.9482" x2="979.0542" y1="688.8105" y2="688.8105"/><text fill="#000000" font-family="sans-serif" font-size="13" lengthAdjust="spacing" textLength="73.0044" x="769.9482" y="683.5479">notify{genre}</text><polygon fill="#181818" points="880.9863,716.1016,870.9863,720.1016,880.9863,724.1016,876.9863,720.1016" style="stroke:#181818;stroke-width:1.0;"/><line style="stroke:#181818;stroke-width:1.0;" x1="874.9863" x2="979.0542" y1="720.1016" y2="720.1016"/><text fill="#000000" font-family="sans-serif" font-size="13" lengthAdjust="spacing" textLength="73.0044" x="886.9863" y="714.8389">notify{genre}</text><line style="stroke:#181818;stroke-width:1.0;" x1="869.9863" x2="911.9863" y1="751.3926" y2="751.3926"/><line style="stroke:#181818;stroke-width:1.0;" x1="911.9863" x2="911.9863" y1="751.3926" y2="764.3926"/><line style="stroke:#181818;stroke-width:1.0;" x1="870.9863" x2="911.9863" y1="764.3926" y2="764.3926"/><polygon fill="#181818" points="880.9863,760.3926,870.9863,764.3926,880.9863,768.3926,876.9863,764.3926" style="stroke:#181818;stroke-width:1.0;"/><text fill="#000000" font-family="sans-serif" font-size="13" lengthAdjust="spacing" textLength="69.3672" x="876.9863" y="746.1299">save(genre)</text><polygon fill="#181818" points="341.0322,791.6836,331.0322,795.6836,341.0322,799.6836,337.0322,795.6836" style="stroke:#181818;stroke-width:1.0;"/><line style="stroke:#181818;stroke-width:1.0;" x1="335.0322" x2="979.0542" y1="795.6836" y2="795.6836"/><text fill="#000000" font-family="sans-serif" font-size="13" lengthAdjust="spacing" textLength="73.0044" x="347.0322" y="790.4209">notify{genre}</text><line style="stroke:#181818;stroke-width:1.0;" x1="330.0322" x2="372.0322" y1="826.9746" y2="826.9746"/><line style="stroke:#181818;stroke-width:1.0;" x1="372.0322" x2="372.0322" y1="826.9746" y2="839.9746"/><line style="stroke:#181818;stroke-width:1.0;" x1="331.0322" x2="372.0322" y1="839.9746" y2="839.9746"/><polygon fill="#181818" points="341.0322,835.9746,331.0322,839.9746,341.0322,843.9746,337.0322,839.9746" style="stroke:#181818;stroke-width:1.0;"/><text fill="#000000" font-family="sans-serif" font-size="13" lengthAdjust="spacing" textLength="72.979" x="337.0322" y="821.7119">create(book)</text><line style="stroke:#181818;stroke-width:1.0;" x1="330.0322" x2="372.0322" y1="871.2656" y2="871.2656"/><line style="stroke:#181818;stroke-width:1.0;" x1="372.0322" x2="372.0322" y1="871.2656" y2="884.2656"/><line style="stroke:#181818;stroke-width:1.0;" x1="331.0322" x2="372.0322" y1="884.2656" y2="884.2656"/><polygon fill="#181818" points="341.0322,880.2656,331.0322,884.2656,341.0322,888.2656,337.0322,884.2656" style="stroke:#181818;stroke-width:1.0;"/><text fill="#000000" font-family="sans-serif" font-size="13" lengthAdjust="spacing" textLength="64.3081" x="337.0322" y="866.0029">save(book)</text><polygon fill="#181818" points="968.0542,911.5566,978.0542,915.5566,968.0542,919.5566,972.0542,915.5566" style="stroke:#181818;stroke-width:1.0;"/><line style="stroke:#181818;stroke-width:1.0;" x1="330.0322" x2="974.0542" y1="915.5566" y2="915.5566"/><text fill="#000000" font-family="sans-serif" font-size="13" lengthAdjust="spacing" textLength="78.0698" x="337.0322" y="910.2939">publish{book}</text><polygon fill="#181818" points="341.0322,942.8477,331.0322,946.8477,341.0322,950.8477,337.0322,946.8477" style="stroke:#181818;stroke-width:1.0;"/><line style="stroke:#181818;stroke-width:1.0;" x1="335.0322" x2="979.0542" y1="946.8477" y2="946.8477"/><text fill="#000000" font-family="sans-serif" font-size="13" lengthAdjust="spacing" textLength="67.9453" x="347.0322" y="941.585">notify{book}</text><polygon fill="#181818" points="448.0112,974.1387,438.0112,978.1387,448.0112,982.1387,444.0112,978.1387" style="stroke:#181818;stroke-width:1.0;"/><line style="stroke:#181818;stroke-width:1.0;" x1="442.0112" x2="979.0542" y1="978.1387" y2="978.1387"/><text fill="#000000" font-family="sans-serif" font-size="13" lengthAdjust="spacing" textLength="67.9453" x="454.0112" y="972.876">notify{book}</text><line style="stroke:#181818;stroke-width:1.0;" x1="437.0112" x2="479.0112" y1="1009.4297" y2="1009.4297"/><line style="stroke:#181818;stroke-width:1.0;" x1="479.0112" x2="479.0112" y1="1009.4297" y2="1022.4297"/><line style="stroke:#181818;stroke-width:1.0;" x1="438.0112" x2="479.0112" y1="1022.4297" y2="1022.4297"/><polygon fill="#181818" points="448.0112,1018.4297,438.0112,1022.4297,448.0112,1026.4297,444.0112,1022.4297" style="stroke:#181818;stroke-width:1.0;"/><text fill="#000000" font-family="sans-serif" font-size="13" lengthAdjust="spacing" textLength="64.3081" x="444.0112" y="1004.167">save(book)</text><polygon fill="#181818" points="11,1049.7207,1,1053.7207,11,1057.7207,7,1053.7207" style="stroke:#181818;stroke-width:1.0;"/><line style="stroke:#181818;stroke-width:1.0;stroke-dasharray:2.0,2.0;" x1="5" x2="319.0322" y1="1053.7207" y2="1053.7207"/><text fill="#000000" font-family="sans-serif" font-size="13" lengthAdjust="spacing" textLength="68.6626" x="17" y="1048.458">200 created</text><!--SRC=[ZLFBRjim4BphAnQvf0RYACvHA0B4FXGzgAdGtjh2M4bhYuXCgYJje0ZyDVsK_bX9wc6zsEOaGZipd1tkNXTQLoeAmwf4he-7yZOJXr3HpoFnZ9Ovmxt4Gn1efak2HmK89KibIeRy1Zx2Ys615f19GasckXRY-GOUZxeG4f3dy86u960ST46Wy41GIP6HKa5GeTGiOvNLk4eDKNrR_VZE8wkXhW2LKrERrIoKpq2JCHITaKQtTbN3c_F6H-0UmkI6lUslkS3rMiFhuyQ3vhDegps4n-ieDb7XdjPIF9Dqu3WDk31XbxJJ87PTI02VXCO8dXJGYRWM2d8J-J5LcMGf0V_pMm0fRJyvsPy64f1v8oiNB1zQfGW-Fttv2Y5MB7HPXyO1mkiBqmNWvMbTCv2ZndE0cMOdEmAjc-OBHZPE8wYEQSbKyMhrjhN6rl6tqWwRqZq9q-3xvR9LWWZkx-u1iumgJNaGnAaLxHumilRPxjU_f7CQ-ZD9Tpykaz2THlhrSB-hfHTUcCAJ1_J60BoS6dxsTjxMUstsvdj8IwQqIHP9bqMo6b47JRRItTpyruyTyPhJBiXRdg_diDkhzZ3KQfxAyHS3J3zFLpxxZ3JLdldBClSfoOGo8YIjosGrPBaG6u-U27qcR82zrUfeJUCsnCKimDqvAOydy-onKzS6PfDnTR9YpNV0wDdexRXTyRkcXtnkM_y2]--></g></svg>