<svg xmlns="http://www.w3.org/2000/svg" xmlns:xlink="http://www.w3.org/1999/xlink" contentStyleType="text/css" height="600px" preserveAspectRatio="none" style="width:1081px;height:600px;background:#FFFFFF;" version="1.1" viewBox="0 0 1081 600" width="1081px" zoomAndPan="magnify"><title>As a reader, I want to suggest the acquisition of a new Book.</title><defs/><g><text fill="#000000" font-family="sans-serif" font-size="14" font-weight="bold" lengthAdjust="spacing" textLength="403.7373" x="337.8816" y="30.1074">As a reader, I want to suggest the acquisition of a new Book.</text><rect fill="#FFFFFF" height="405.2012" style="stroke:#181818;stroke-width:1.0;" width="10" x="319.3779" y="148.8242"/><rect fill="#FFFFFF" height="75.582" style="stroke:#181818;stroke-width:1.0;" width="10" x="530.4395" y="331.2793"/><rect fill="#FFFFFF" height="106.873" style="stroke:#181818;stroke-width:1.0;" width="10" x="813.7627" y="438.1523"/><rect fill="#FFFFFF" height="365.9102" style="stroke:#181818;stroke-width:1.0;" width="10" x="1012.5352" y="188.1152"/><line style="stroke:#181818;stroke-width:0.5;stroke-dasharray:5.0,5.0;" x1="324.3506" x2="324.3506" y1="78.2422" y2="563.0254"/><line style="stroke:#181818;stroke-width:0.5;stroke-dasharray:5.0,5.0;" x1="535.2017" x2="535.2017" y1="78.2422" y2="563.0254"/><line style="stroke:#181818;stroke-width:0.5;stroke-dasharray:5.0,5.0;" x1="817.8076" x2="817.8076" y1="78.2422" y2="563.0254"/><line style="stroke:#181818;stroke-width:0.5;stroke-dasharray:5.0,5.0;" x1="1016.5698" x2="1016.5698" y1="78.2422" y2="563.0254"/><rect fill="#E2E2F0" height="32.6211" rx="2.5" ry="2.5" style="stroke:#181818;stroke-width:0.5;" width="84.0547" x="282.3506" y="44.6211"/><text fill="#000000" font-family="sans-serif" font-size="14" lengthAdjust="spacing" textLength="70.0547" x="289.3506" y="66.7285">Suggestion</text><rect fill="#E2E2F0" height="32.6211" rx="2.5" ry="2.5" style="stroke:#181818;stroke-width:0.5;" width="84.0547" x="282.3506" y="562.0254"/><text fill="#000000" font-family="sans-serif" font-size="14" lengthAdjust="spacing" textLength="70.0547" x="289.3506" y="584.1328">Suggestion</text><rect fill="#E2E2F0" height="32.6211" rx="2.5" ry="2.5" style="stroke:#181818;stroke-width:0.5;" width="68.4756" x="501.2017" y="44.6211"/><text fill="#000000" font-family="sans-serif" font-size="14" lengthAdjust="spacing" textLength="54.4756" x="508.2017" y="66.7285">Librarian</text><rect fill="#E2E2F0" height="32.6211" rx="2.5" ry="2.5" style="stroke:#181818;stroke-width:0.5;" width="68.4756" x="501.2017" y="562.0254"/><text fill="#000000" font-family="sans-serif" font-size="14" lengthAdjust="spacing" textLength="54.4756" x="508.2017" y="584.1328">Librarian</text><rect fill="#E2E2F0" height="32.6211" rx="2.5" ry="2.5" style="stroke:#181818;stroke-width:0.5;" width="45.9102" x="795.8076" y="44.6211"/><text fill="#000000" font-family="sans-serif" font-size="14" lengthAdjust="spacing" textLength="31.9102" x="802.8076" y="66.7285">Book</text><rect fill="#E2E2F0" height="32.6211" rx="2.5" ry="2.5" style="stroke:#181818;stroke-width:0.5;" width="45.9102" x="795.8076" y="562.0254"/><text fill="#000000" font-family="sans-serif" font-size="14" lengthAdjust="spacing" textLength="31.9102" x="802.8076" y="584.1328">Book</text><rect fill="#E2E2F0" height="32.6211" rx="2.5" ry="2.5" style="stroke:#181818;stroke-width:0.5;" width="115.9307" x="959.5698" y="44.6211"/><text fill="#000000" font-family="sans-serif" font-size="14" lengthAdjust="spacing" textLength="101.9307" x="966.5698" y="66.7285">Message Broker</text><rect fill="#E2E2F0" height="32.6211" rx="2.5" ry="2.5" style="stroke:#181818;stroke-width:0.5;" width="115.9307" x="959.5698" y="562.0254"/><text fill="#000000" font-family="sans-serif" font-size="14" lengthAdjust="spacing" textLength="101.9307" x="966.5698" y="584.1328">Message Broker</text><rect fill="#FFFFFF" height="405.2012" style="stroke:#181818;stroke-width:1.0;" width="10" x="319.3779" y="148.8242"/><rect fill="#FFFFFF" height="75.582" style="stroke:#181818;stroke-width:1.0;" width="10" x="530.4395" y="331.2793"/><rect fill="#FFFFFF" height="106.873" style="stroke:#181818;stroke-width:1.0;" width="10" x="813.7627" y="438.1523"/><rect fill="#FFFFFF" height="365.9102" style="stroke:#181818;stroke-width:1.0;" width="10" x="1012.5352" y="188.1152"/><path d="M5,93.2422 L5,120.2422 L320,120.2422 L320,103.2422 L310,93.2422 L5,93.2422 " fill="#FEFFDD" style="stroke:#181818;stroke-width:0.5;"/><path d="M310,93.2422 L310,103.2422 L320,103.2422 L310,93.2422 " fill="#FEFFDD" style="stroke:#181818;stroke-width:0.5;"/><text fill="#000000" font-family="sans-serif" font-size="13" lengthAdjust="spacing" textLength="294.106" x="11" y="112.2705">Nota: Os eventos de subscribe n&#227;o est&#227;o descritos</text><polygon fill="#181818" points="307.3779,144.8242,317.3779,148.8242,307.3779,152.8242,311.3779,148.8242" style="stroke:#181818;stroke-width:1.0;"/><line style="stroke:#181818;stroke-width:1.0;" x1="0" x2="313.3779" y1="148.8242" y2="148.8242"/><text fill="#000000" font-family="sans-serif" font-size="13" lengthAdjust="spacing" textLength="220.3779" x="7" y="143.5615">POST /suggest/isbn(with book details)</text><line style="stroke:#181818;stroke-width:1.0;" x1="329.3779" x2="371.3779" y1="180.1152" y2="180.1152"/><line style="stroke:#181818;stroke-width:1.0;" x1="371.3779" x2="371.3779" y1="180.1152" y2="193.1152"/><line style="stroke:#181818;stroke-width:1.0;" x1="330.3779" x2="371.3779" y1="193.1152" y2="193.1152"/><polygon fill="#181818" points="340.3779,189.1152,330.3779,193.1152,340.3779,197.1152,336.3779,193.1152" style="stroke:#181818;stroke-width:1.0;"/><text fill="#000000" font-family="sans-serif" font-size="13" lengthAdjust="spacing" textLength="177.0615" x="336.3779" y="174.8525">suggestBook(bookSuggestion)</text><line style="stroke:#181818;stroke-width:1.0;" x1="329.3779" x2="371.3779" y1="224.4063" y2="224.4063"/><line style="stroke:#181818;stroke-width:1.0;" x1="371.3779" x2="371.3779" y1="224.4063" y2="237.4063"/><line style="stroke:#181818;stroke-width:1.0;" x1="330.3779" x2="371.3779" y1="237.4063" y2="237.4063"/><polygon fill="#181818" points="340.3779,233.4063,330.3779,237.4063,340.3779,241.4063,336.3779,237.4063" style="stroke:#181818;stroke-width:1.0;"/><text fill="#000000" font-family="sans-serif" font-size="13" lengthAdjust="spacing" textLength="129.3589" x="336.3779" y="219.1436">save(bookSuggestion)</text><polygon fill="#181818" points="1000.5352,264.6973,1010.5352,268.6973,1000.5352,272.6973,1004.5352,268.6973" style="stroke:#181818;stroke-width:1.0;"/><line style="stroke:#181818;stroke-width:1.0;" x1="329.3779" x2="1006.5352" y1="268.6973" y2="268.6973"/><text fill="#000000" font-family="sans-serif" font-size="13" lengthAdjust="spacing" textLength="143.1206" x="336.3779" y="263.4346">publish{bookSuggestion}</text><polygon fill="#181818" points="11,295.9883,1,299.9883,11,303.9883,7,299.9883" style="stroke:#181818;stroke-width:1.0;"/><line style="stroke:#181818;stroke-width:1.0;stroke-dasharray:2.0,2.0;" x1="5" x2="318.3779" y1="299.9883" y2="299.9883"/><text fill="#000000" font-family="sans-serif" font-size="13" lengthAdjust="spacing" textLength="79.5044" x="17" y="294.7256">202 Accepted</text><polygon fill="#181818" points="551.4395,327.2793,541.4395,331.2793,551.4395,335.2793,547.4395,331.2793" style="stroke:#181818;stroke-width:1.0;"/><line style="stroke:#181818;stroke-width:1.0;" x1="545.4395" x2="1011.5352" y1="331.2793" y2="331.2793"/><text fill="#000000" font-family="sans-serif" font-size="13" lengthAdjust="spacing" textLength="132.9961" x="557.4395" y="326.0166">notify{bookSuggestion}</text><line style="stroke:#181818;stroke-width:1.0;" x1="540.4395" x2="582.4395" y1="362.5703" y2="362.5703"/><line style="stroke:#181818;stroke-width:1.0;" x1="582.4395" x2="582.4395" y1="362.5703" y2="375.5703"/><line style="stroke:#181818;stroke-width:1.0;" x1="541.4395" x2="582.4395" y1="375.5703" y2="375.5703"/><polygon fill="#181818" points="551.4395,371.5703,541.4395,375.5703,551.4395,379.5703,547.4395,375.5703" style="stroke:#181818;stroke-width:1.0;"/><text fill="#000000" font-family="sans-serif" font-size="13" lengthAdjust="spacing" textLength="249.3232" x="547.4395" y="357.3076">Librarian analyze suggestion and accepts it</text><polygon fill="#181818" points="1000.5352,402.8613,1010.5352,406.8613,1000.5352,410.8613,1004.5352,406.8613" style="stroke:#181818;stroke-width:1.0;"/><line style="stroke:#181818;stroke-width:1.0;" x1="535.4395" x2="1006.5352" y1="406.8613" y2="406.8613"/><text fill="#000000" font-family="sans-serif" font-size="13" lengthAdjust="spacing" textLength="143.6729" x="542.4395" y="401.5986">publish{"book.accepted"}</text><polygon fill="#181818" points="834.7627,434.1523,824.7627,438.1523,834.7627,442.1523,830.7627,438.1523" style="stroke:#181818;stroke-width:1.0;"/><line style="stroke:#181818;stroke-width:1.0;" x1="828.7627" x2="1011.5352" y1="438.1523" y2="438.1523"/><text fill="#000000" font-family="sans-serif" font-size="13" lengthAdjust="spacing" textLength="130.0889" x="840.7627" y="432.8896">Notify {book.accepted}</text><line style="stroke:#181818;stroke-width:1.0;" x1="823.7627" x2="865.7627" y1="469.4434" y2="469.4434"/><line style="stroke:#181818;stroke-width:1.0;" x1="865.7627" x2="865.7627" y1="469.4434" y2="482.4434"/><line style="stroke:#181818;stroke-width:1.0;" x1="824.7627" x2="865.7627" y1="482.4434" y2="482.4434"/><polygon fill="#181818" points="834.7627,478.4434,824.7627,482.4434,834.7627,486.4434,830.7627,482.4434" style="stroke:#181818;stroke-width:1.0;"/><text fill="#000000" font-family="sans-serif" font-size="13" lengthAdjust="spacing" textLength="164.7725" x="830.7627" y="464.1807">createSuggestedBook(book)</text><polygon fill="#181818" points="1000.5352,509.7344,1010.5352,513.7344,1000.5352,517.7344,1004.5352,513.7344" style="stroke:#181818;stroke-width:1.0;"/><line style="stroke:#181818;stroke-width:1.0;" x1="823.7627" x2="1006.5352" y1="513.7344" y2="513.7344"/><text fill="#000000" font-family="sans-serif" font-size="13" lengthAdjust="spacing" textLength="78.0698" x="830.7627" y="508.4717">publish{book}</text><polygon fill="#181818" points="829.7627,541.0254,819.7627,545.0254,829.7627,549.0254,825.7627,545.0254" style="stroke:#181818;stroke-width:1.0;"/><line style="stroke:#181818;stroke-width:1.0;" x1="823.7627" x2="1011.5352" y1="545.0254" y2="545.0254"/><text fill="#000000" font-family="sans-serif" font-size="13" lengthAdjust="spacing" textLength="67.9453" x="835.7627" y="539.7627">notify{book}</text><!--SRC=[VLDBRi8m4Dtx52DM81MeM4PL9TXLQaibUe5nF815iDDu056Kq_GelLZj9EG7QZQPZDzxVlC9Qqu8vWuGCa95sGEym0aD0rjmXys6d0-t11X_7RJJhAq1k_PmGoTOMBkR295YnZhMQQ0DLYN9umQ0xghXFxkmLoqpp3IMgEJwrGK5_U9S-g1xz4REuOPWaTaTPGLeBuMnJ93GceF7rjK0xvOnWgK3Ef9Xwq2H1qWNPreIcDyV2nuRNef2qaC46GL1KS3ukQKMmSTozGdJAZFLJfhXIVEsiEdvZ3fn8u4nwoCojOqqOL-pYaF9mw3Jz74a6YbVupyIUAGRRXU-bn6a1vbejxrqaRbu6eyxSZ1xdC4yZYbbKaBiPH2e9nM5rkZr-KQczjeCLTHXJwBU0a23oVcxtIkVKdxjmlKEDFT4seKCWeK9Lau7kH2Axha0_vHL148KTi8N09SEFIzWDRtOl90fPbjJO_-tC5LbawgdDkfW-ztERooqUbWUjfmNLzylvGy0]--></g></svg>